<?xml version="1.0" encoding="utf-8"?>
<!-- Generator: Adobe Illustrator 27.5.0, SVG Export Plug-In . SVG Version: 6.00 Build 0)  -->
<svg version="1.1" id="Layer_1" xmlns="http://www.w3.org/2000/svg" xmlns:xlink="http://www.w3.org/1999/xlink" x="0px" y="0px"
	 viewBox="0 0 500 500" style="enable-background:new 0 0 500 500;" xml:space="preserve">
<style type="text/css">
	.st0{fill:#FBF1EC;}
	.st1{fill:#FDBEAF;}
	.st2{fill:#CD5877;}
	.st3{fill:#282B52;}
	.st4{fill:#6D83BC;}
	.st5{fill:#FEB172;}
	.st6{fill:#FEE072;}
	.st7{fill:#BFCEE5;}
	.st8{fill:#FF86AB;stroke:#262425;stroke-miterlimit:10;}
	.st9{fill:#5668AA;}
	.st10{fill:#FDA19B;}
	.st11{fill:#9095C9;}
	.st12{fill:#FED177;}
	.st13{fill:#353861;}
	.st14{fill:#FD7A8D;}
	.st15{fill:#FEC872;}
	.st16{fill:#FFFFFF;}
	.st17{fill:#9FBFDE;}
	.st18{fill:#6DACBC;}
	.st19{fill:#549398;}
</style>
<g id="OBJECTS">
	<path class="st0" d="M405.1,452.8c21.9-30.9,34.8-68.7,34.8-109.5c0-104.8-85-189.8-189.8-189.8s-189.8,85-189.8,189.8
		c0,40.8,12.9,78.6,34.8,109.5H405.1z"/>
	<g>
		<path class="st1" d="M94,317.5c0,0-19-17-24.5-25.7s-7.8-15.8-7.8-18.1c0.1-2.3,1.9-2.9,1.9-2.9s0.1-4.3,1.8-5.7
			c0,0-1.8-2.6,2.7-5c4.4-2.4,17.9,9.2,18.8,9.5s3.9,8.4,4.1,10.2c0.2,1.8,1.2,12.9,2.1,15c0.9,2.1,6.1,13,6.3,12.6
			C99.5,306.9,94,317.5,94,317.5z"/>
		<path class="st2" d="M61.2,228.1c-10.5,4.4-18.9,14.7-20.5,26.1c-1.8,12.5,3.2,28.3,16.1,32.8c12.9,4.5,28.8,0.2,36.7-11.2
			c5.6-8.1,6-20.2,3.7-29.5C93.3,230.4,76.4,221.7,61.2,228.1z"/>
		<path class="st0" d="M62.9,233.9c-8.4,3.6-15.2,11.8-16.5,21c-1.5,10.1,2.6,22.7,13,26.4c10.3,3.6,23.2,0.1,29.5-9
			c4.5-6.5,4.9-16.2,3-23.7C88.6,235.7,75.1,228.7,62.9,233.9z"/>
		<path class="st1" d="M134.2,242.7c0,0-6-24.8-5.7-35.1c0.4-10.2,2.5-17.5,3.9-19.3s3.2-1.3,3.2-1.3s2.5-3.5,4.7-3.7
			c0,0,0-3.1,5-2.6s9.5,17.7,10.1,18.4c0.6,0.7-1.5,9.1-2.4,10.7c-0.9,1.6-6.3,11.3-6.7,13.5c-0.5,2.2-2.4,14.2-1.9,13.9
			C144.8,237.1,134.2,242.7,134.2,242.7z"/>
		<path class="st3" d="M141.7,151.5c0,0,27.1,35.8,27.3,37.4c0.2,1.6-46.8,41.5-48.4,41.5s-29.1-35.8-30.3-38.1
			S138.5,152.2,141.7,151.5z"/>
		<path class="st0" d="M140.4,155.9c0,0,24.1,31.8,24.3,33.2c0.2,1.4-41.6,36.9-43,36.9s-25.9-31.8-26.9-33.8
			S137.5,156.5,140.4,155.9z"/>
		<path class="st1" d="M366.9,242.7c0,0,6-24.8,5.7-35.1c-0.4-10.2-2.5-17.5-3.9-19.3c-1.4-1.9-3.2-1.3-3.2-1.3s-2.5-3.5-4.7-3.7
			c0,0,0-3.1-5-2.6s-9.5,17.7-10.1,18.4c-0.6,0.7,1.5,9.1,2.4,10.7c0.9,1.6,6.3,11.3,6.7,13.5c0.5,2.2,2.4,14.2,1.9,13.9
			C356.3,237.1,366.9,242.7,366.9,242.7z"/>
		<path class="st3" d="M364.8,214.7l-41.3-21c-2.3-1.1-3.1-3.9-2-6.1l8.6-17c1.1-2.3,3.9-3.1,6.1-2l41.3,21c2.3,1.1,3.1,3.9,2,6.1
			l-8.6,17C369.8,215,367.1,215.9,364.8,214.7z"/>
		<path class="st4" d="M364.5,212.9l-38.6-19.6c-2.3-1.1-3.1-3.9-2-6.1l7.5-14.7c1.1-2.3,3.9-3.1,6.1-2l38.6,19.6
			c2.3,1.1,3.1,3.9,2,6.1l-7.5,14.7C369.5,213.1,366.8,214,364.5,212.9z"/>
		<path class="st1" d="M350.6,238.2c0,0,1.2-12,0.2-18.3c-1-6.3-7-16.5-5.9-18.7c1.6-3.3,7.3,0.5,12.1,8.7
			c4.5,7.7,6.9,22.2,4.8,31.2c-2.2,9-7.6,7.2-8.4,6.4C352.5,246.7,350.6,238.2,350.6,238.2z"/>
		<path class="st4" d="M271.7,296.9c0,0,42.1-16.4,54.2-23.6c12-7.2,19.9-37.9,21-40.6c1.2-2.8,22.7,6.7,23.7,9
			c1.1,2.3-2.9,34.6-11.8,46.8c-8.9,12.2-44.1,31.7-44.1,31.7L271.7,296.9z"/>
		<path class="st1" d="M407.1,317.5c0,0,19-17,24.5-25.7s7.8-15.8,7.8-18.1c-0.1-2.3-1.9-2.9-1.9-2.9s-0.1-4.3-1.8-5.7
			c0,0,1.8-2.6-2.7-5c-4.4-2.4-17.9,9.2-18.8,9.5s-3.9,8.4-4.1,10.2c-0.2,1.8-1.2,12.9-2.1,15c-0.9,2.1-6.1,13-6.3,12.6
			S407.1,317.5,407.1,317.5z"/>
		<ellipse class="st5" cx="422.6" cy="261.7" rx="14.2" ry="14.6"/>
		<ellipse class="st6" cx="422.6" cy="262.1" rx="11.2" ry="11.2"/>
		<path class="st1" d="M396.7,301.3c0,0,7.8-9.2,10.5-14.9c2.8-5.7,3.6-17.6,5.7-18.8c3.2-1.8,5.7,4.6,5,14
			c-0.7,8.9-6.9,22.2-13.8,28.4s-10.3,1.6-10.5,0.5C393.5,309.3,396.7,301.3,396.7,301.3z"/>
		<path class="st4" d="M297.6,308.8c0,0,44,10.3,58,11.2s37.8-19.9,40.4-21.6s14.9,18.3,14.4,20.9c-0.5,2.5-22,26.8-36.2,31.9
			c-14.2,5-54.3,1.1-54.3,1.1L297.6,308.8z"/>
		<path class="st1" d="M151.4,236.4c0,0-1.2-12-0.2-18.3c1-6.3,7-16.5,5.9-18.7c-1.6-3.3-7.3,0.5-12.1,8.7
			c-4.5,7.7-6.9,22.2-4.8,31.2c2.2,9,7.6,7.2,8.4,6.4C149.5,244.8,151.4,236.4,151.4,236.4z"/>
		<path class="st4" d="M229.3,296.9c0,0-42.1-16.4-54.2-23.6c-12-7.2-19.9-37.9-21-40.6c-1.2-2.8-22.7,6.7-23.7,9
			c-1.1,2.3,2.9,34.6,11.8,46.8c8.9,12.2,44.1,31.7,44.1,31.7L229.3,296.9z"/>
		<path class="st1" d="M104.4,301.3c0,0-7.8-9.2-10.5-14.9c-2.8-5.7-3.6-17.6-5.7-18.8c-3.2-1.8-5.7,4.6-5,14
			c0.7,8.9,6.9,22.2,13.8,28.4s10.3,1.6,10.5,0.5C107.6,309.3,104.4,301.3,104.4,301.3z"/>
		<path class="st4" d="M203.5,308.8c0,0-44,10.3-58,11.2c-14,0.9-37.8-19.9-40.4-21.6c-2.5-1.6-14.9,18.3-14.4,20.9
			c0.5,2.5,22,26.8,36.2,31.9c14.2,5,54.3,1.1,54.3,1.1L203.5,308.8z"/>
		<ellipse class="st3" cx="249.3" cy="179.7" rx="22.7" ry="22.7"/>
		<path class="st3" d="M249.2,177c-52.1,0-52.7,47.2-46.8,72.2c6,25-25.9,53.2,12.2,74.8c38.1,21.6,76.6,0.7,82.5-9.4
			c8-13.5-5.7-42.2-1.6-61.5C299.8,233.1,305,177,249.2,177z"/>
		<path class="st0" d="M221.3,312.5c0.2,1.4,6.4,53.4,7.8,53.2c1.4-0.2,48.6-1.8,46.8-3.2c-1.8-1.4,5.7-43.6,4.6-45.9
			c-1.1-2.3-21.3-6.6-24.8-7.6S221.3,312.5,221.3,312.5z"/>
		<path class="st1" d="M225.6,293.5c4.4-1.6,6.6-3.2,8.9-5.7c2.3-2.5,2.3-13.8,2.3-13.8l24.3,2.1c0,0,0.5,8.3,2.5,11
			c2.1,2.8,5.7,4.1,9.4,6.4l1.4,22.5c0,0-18.3,17.9-51.6,0c0,0-1.1-12.4-1.1-13.3C221.7,301.7,225.6,293.5,225.6,293.5z"/>
		<path class="st4" d="M225.6,293.5c0,0-0.2,37.4,11,71.3l-46.5,74.3c0,0-27.1-19.7-29.8-49.8c-2.8-30,19-61.3,28.9-73.6
			C197,306.1,216.2,296.2,225.6,293.5z"/>
		<path class="st4" d="M273.1,293.5c0,0,0.2,37.4-11,71.3l46.5,74.3c0,0,27.1-19.7,29.8-49.8c2.8-30-19-61.3-28.9-73.6
			C301.7,306.1,282.5,296.2,273.1,293.5z"/>
		<path class="st7" d="M308,443.4H192c-2.7,0-5-2-5.4-4.6l-12.2-79.4c-0.5-3.3,2-6.2,5.4-6.2h140.4c3.3,0,5.9,3,5.4,6.2l-12.2,79.4
			C313,441.4,310.7,443.4,308,443.4z"/>
		<path class="st8" d="M225.6,293.5"/>
		<path class="st4" d="M162.2,169.7c1.4-1.3,3.7-4,1.7-6.3c-2-2.4-4.4-0.6-5.8,0.5c-2.1-2.7-3.9-4.8-4.3-4.4c-1.5,1.2-6.9,6-7.6,7.3
			s9.2,15.6,11.7,14.7c2.5-0.9,7.1-4.8,7.8-5.5C166.1,175.8,164.4,173,162.2,169.7z"/>
		<path class="st9" d="M162.2,166.1c0,0,0-0.1,0-0.1c0-0.1-0.1-0.2-0.2-0.3c-0.1-0.3-0.3-0.6-0.6-0.7c0,0-0.1,0-0.1-0.1
			c-0.1-0.1-0.3-0.1-0.4-0.1c-0.1,0-0.2,0-0.3,0c-0.1,0-0.2,0.1-0.3,0.1c0,0-0.1,0-0.1,0.1c-0.1,0.1-0.2,0.1-0.3,0.2
			c-0.1,0.1-0.2,0.2-0.2,0.3c-0.1,0.1-0.2,0.3-0.2,0.5c0,0,0,0,0,0c0,0,0,0,0,0c0,0,0,0,0,0.1c0,0,0,0,0,0c0,0.1,0,0.2,0,0.3
			c0,0,0,0,0,0c0,0.1,0,0.2,0,0.2c0,0.1,0,0.1,0,0.2c0,0,0,0,0,0.1c0,0.1,0.1,0.2,0.1,0.4c0,0,0,0,0,0c0,0.1,0.1,0.1,0.1,0.1
			c0,0,0.1,0.1,0.1,0.1c0.1,0.1,0.2,0.2,0.3,0.2c0,0,0,0,0,0c0,0,0,0,0.1,0c0.1,0.1,0.2,0.1,0.3,0.1c0,0,0,0,0.1,0
			c0.1,0,0.2,0,0.3,0c0.1,0,0.3,0,0.4-0.1c0,0-0.1,0-0.1,0c0.1,0,0.2-0.1,0.2-0.1c0,0,0,0,0,0c0,0,0,0,0,0c0,0,0,0,0.1,0l0,0
			c0,0,0,0,0,0c0,0,0,0,0.1,0c0,0,0,0,0,0c0.2-0.1,0.3-0.3,0.4-0.4c0,0,0-0.1,0.1-0.1c0.1-0.1,0.1-0.2,0.2-0.4
			c0.1-0.2,0.1-0.4,0.1-0.5C162.2,166.3,162.2,166.2,162.2,166.1z"/>
		<g>
			<path class="st3" d="M62.9,241.5c0-0.1,0-0.2,0-0.2c0-0.2,0-0.3-0.1-0.5c-0.1-0.2-0.2-0.4-0.3-0.6c-0.1-0.2-0.3-0.4-0.4-0.6
				c-0.2-0.2-0.4-0.3-0.6-0.4c-0.3-0.2-0.8-0.2-1.1,0.1c-0.3,0.3-0.4,0.8-0.1,1.1c0.1,0.1,0.1,0.2,0.2,0.3c0.1,0.2,0.2,0.3,0.3,0.5
				c-0.1-0.1-0.1-0.1-0.2-0.2c0.1,0.2,0.2,0.3,0.3,0.5c0.1,0.1,0.2,0.2,0.2,0.3c0.1,0.1,0.1,0.1,0.2,0.2c0.1,0,0.1,0.1,0.2,0.1
				c0.1,0.1,0.2,0.2,0.4,0.2c0,0,0,0.1,0.1,0.1c0.1,0.1,0.1,0.2,0.2,0.3c0.1,0.1,0.3,0.1,0.3,0c0.1-0.1,0.1-0.2,0.1-0.4
				c0-0.1,0-0.1,0-0.2C62.8,241.9,62.9,241.7,62.9,241.5z"/>
			<polygon class="st3" points="61.8,242.2 61.8,242.2 61.8,242.2 61.8,242.2 			"/>
		</g>
		<path class="st3" d="M82,275.9c0-0.1,0-0.3-0.1-0.4c-0.1-0.2-0.1-0.4-0.2-0.6c-0.1-0.1-0.2-0.3-0.3-0.4c0,0-0.1-0.1-0.1-0.1
			c0,0-0.1-0.1-0.1-0.1c-0.1-0.1-0.2-0.2-0.3-0.2c0,0,0,0-0.1,0c-0.1-0.1-0.2-0.1-0.3-0.2c-0.1,0-0.2-0.1-0.3-0.1
			c-0.2,0-0.3-0.1-0.5,0c-0.1,0-0.2,0-0.3,0.1c-0.1,0-0.3,0.1-0.4,0.2c-0.1,0.2-0.2,0.3-0.3,0.5c-0.1,0.2-0.1,0.3,0,0.5
			c0,0.2,0.1,0.3,0.1,0.4c0.1,0.1,0.1,0.1,0.1,0.2c0,0.1,0.1,0.2,0.1,0.3c0,0.1,0.1,0.2,0.1,0.2l0,0c0,0,0,0.1,0,0.1
			c0,0,0,0.1,0,0.1c0,0,0,0,0,0.1c0.1,0.2,0.2,0.4,0.3,0.6c0.1,0.1,0.2,0.2,0.3,0.2c0.2,0.1,0.3,0.1,0.5,0.2c0.2,0,0.3,0,0.5,0
			c0.1,0,0.2-0.1,0.3-0.1c0.1,0,0.1-0.1,0.1-0.1c0.1-0.1,0.3-0.2,0.3-0.4c0-0.1,0.1-0.1,0.1-0.2c0.1-0.2,0.1-0.3,0.1-0.5
			C82.1,276.1,82,276,82,275.9z"/>
		<path class="st3" d="M56.5,273.2c0-0.1-0.1-0.2-0.2-0.3c-0.1-0.1-0.3-0.2-0.5-0.3c-0.3-0.1-0.6,0-0.8,0.1c-0.4,0.2-0.7,0.5-1,0.9
			c-0.1,0.1-0.1,0.2-0.2,0.3c-0.1,0.2-0.2,0.4-0.2,0.6c0,0.1,0,0.2,0,0.3c0,0.2,0,0.3,0.1,0.5c0,0.1,0.1,0.2,0.2,0.3
			c0.1,0.1,0.2,0.2,0.3,0.3c0.2,0.1,0.4,0.2,0.6,0.2c0.3,0,0.6-0.1,0.8-0.3c0.1-0.1,0.1-0.1,0.2-0.2c0.2-0.2,0.4-0.5,0.4-0.9
			c0,0,0,0,0-0.1c0.1-0.2,0.2-0.3,0.3-0.5c0-0.1,0.1-0.2,0.1-0.3c0-0.1,0-0.3,0-0.4C56.5,273.3,56.5,273.2,56.5,273.2z"/>
		<path class="st3" d="M87.7,245c-0.1-0.2-0.2-0.4-0.3-0.5c-0.1-0.1-0.3-0.2-0.4-0.2c-0.2,0-0.4,0-0.5,0.1c-0.1,0-0.3,0.1-0.4,0.1
			c-0.1,0.1-0.2,0.1-0.2,0.2c0,0-0.1,0.1-0.1,0.1c0.1-0.1,0.2-0.1,0.2-0.2c-0.2,0.1-0.4,0.3-0.6,0.5c0.1-0.1,0.2-0.1,0.2-0.2
			c-0.2,0.2-0.4,0.4-0.6,0.6c0,0-0.1,0.1-0.1,0.1c-0.1,0.2-0.1,0.3-0.2,0.6c0,0.2,0,0.3,0.1,0.5c0.1,0.1,0.2,0.3,0.3,0.3
			c0.2,0.1,0.3,0.2,0.6,0.1c0,0,0.1,0,0.1,0c0,0,0,0,0,0c0.1,0,0.2,0,0.3,0c0.1,0,0.1,0,0.2-0.1c0.1,0,0.2-0.1,0.3-0.1
			c0.2-0.1,0.3-0.2,0.4-0.3c0.1-0.1,0.2-0.1,0.2-0.2c0,0,0.1-0.1,0.1-0.1c0.1-0.1,0.2-0.2,0.2-0.4c0-0.1,0-0.1,0-0.2v0
			c0-0.1,0-0.1,0.1-0.2C87.8,245.3,87.8,245.1,87.7,245z"/>
		<path class="st3" d="M79.3,244.6c-0.2-0.8-0.8-1.6-1.3-2.2c-0.6-0.8-1.2-1.6-2.3-1.6c-0.9,0-1.8,0.5-2.6,0.9
			c-0.7,0.3-1.6,0.7-2.1,1.4c0,0,0,0-0.1,0.1c-0.4,0.4-0.1,1.2,0.5,1.2c0.1,0,0.2,0,0.3,0c0.1,0,0.2,0,0.4-0.1
			c0.2,0,0.4-0.1,0.6-0.1c0.4-0.1,0.8-0.3,1.2-0.4c0.1-0.1,0.3-0.1,0.4-0.2c-0.8,2.4-1.6,4.7-2.5,7.1c-0.5,1.3-1,2.7-1.5,4
			c-0.2,0.6-0.6,1.3-0.9,2c-0.1,0-0.1,0.1-0.2,0.1c-0.2,0.1-0.4,0.2-0.5,0.4c0,0,0,0.1-0.1,0.1c-0.1,0.1-0.2,0.2-0.3,0.3
			c-0.1,0.1-0.1,0.2-0.2,0.3c-0.1,0.2-0.1,0.3-0.1,0.5c-1.2,0.1-2.4,0.2-3.6,0.4c-0.8,0.1-1.6,0.2-2.4,0.4c-0.3,0.1-0.6,0.1-0.9,0.2
			c0-0.1,0.1-0.1,0.1-0.2c0.2-0.3,0.5-0.7,0.7-1c0.2-0.4,0.1-0.9-0.2-1.2c-0.4-0.3-0.9-0.2-1.3,0.1c-0.4,0.4-0.7,0.8-1,1.2
			c-0.3,0.4-0.5,0.8-0.7,1.2c-0.3,0.8-0.3,1.8,0.2,2.6c0.4,0.7,1,1.2,1.6,1.6c0.7,0.4,1.7,1,2.6,0.5c0.4-0.2,0.5-0.8,0.3-1.2
			c-0.2-0.4-0.5-0.6-0.9-0.8c-0.1,0-0.2-0.1-0.3-0.1c0,0,0,0,0,0c0,0-0.1,0-0.1-0.1c-0.1-0.1-0.3-0.1-0.4-0.2
			c-0.1-0.1-0.3-0.1-0.4-0.2c-0.1,0-0.1-0.1-0.2-0.1c0,0,0,0,0,0c0,0,0,0,0,0c0.5,0,0.9-0.1,1.3-0.2c0.7-0.1,1.5-0.2,2.2-0.3
			c1.5-0.2,3.1-0.2,4.6-0.3c0.1,0,0.3,0.1,0.4,0.1c0.2,0,0.3,0,0.5-0.1c0.2,0,0.4-0.1,0.5-0.2c0.2-0.1,0.3-0.2,0.5-0.3
			c-0.1,0.1-0.2,0.1-0.2,0.2c0.1-0.1,0.3-0.2,0.4-0.3c0.1-0.1,0.2-0.2,0.3-0.4c0.1-0.2,0.2-0.4,0.3-0.6c0.1-0.3,0.1-0.6,0-1
			c0-0.1-0.1-0.3-0.2-0.4c0-0.1-0.1-0.1-0.1-0.2c0,0-0.1-0.1-0.1-0.1c0.3-0.6,0.5-1.3,0.8-1.8c0.6-1.4,1.2-2.7,1.7-4.1
			c0.9-2.3,1.7-4.7,2.5-7.1c0.3,0.5,0.6,1,0.9,1.4C78.3,246.4,79.6,245.6,79.3,244.6z"/>
		<path class="st4" d="M149.9,187.2c-0.5-1.5-1.7-2.9-2.6-4.2c-1-1.4-2-2.8-3-4.3c-1-1.4-1.9-2.7-2.9-4.1c-0.9-1.2-1.8-2.8-3.1-3.7
			c-0.3-0.2-0.7,0.1-0.6,0.5c0.4,1.5,1.6,2.9,2.4,4.2c0.9,1.4,1.8,2.8,2.8,4.2s1.8,2.8,2.8,4.2c0.5,0.7,0.9,1.4,1.4,2.1
			c0.3,0.4,0.6,0.9,0.9,1.3c0,0.2,0.1,0.4,0.3,0.5c0,0,0.1,0,0.1,0c0.1,0.1,0.1,0.1,0.2,0.2c0,0,0,0,0-0.1
			C149,188.6,150.2,188.2,149.9,187.2z"/>
		<path class="st4" d="M148,194.7c-1-2.3-2.9-4.4-4.4-6.3c-1.7-2.1-3.4-4.1-5.1-6.2c-1.7-2-3.4-4.1-5-6.2c-0.8-1.1-1.5-2.2-2.3-3.3
			c-0.6-1-1.1-2.1-2.1-2.8c-0.1-0.1-0.3,0-0.3,0.2c0,1.1,0.6,2.1,1.1,3.1c0.6,1.1,1.3,2.2,2,3.2c1.4,2.2,3,4.2,4.6,6.3
			c1.6,2.1,3.3,4.2,4.9,6.3c0.8,1,1.5,2,2.2,3.1c0.8,1.1,1.8,2.3,2.3,3.6C146.6,197,148.7,196.2,148,194.7z"/>
		<path class="st4" d="M141,199.3c-1-2.3-2.9-4.4-4.4-6.3c-1.7-2.1-3.4-4.1-5.1-6.2c-1.7-2-3.4-4.1-5-6.2c-0.8-1.1-1.5-2.2-2.3-3.3
			c-0.6-1-1.1-2.1-2.1-2.8c-0.1-0.1-0.3,0-0.3,0.2c0,1.1,0.6,2.1,1.1,3.1c0.6,1.1,1.3,2.2,2,3.2c1.4,2.2,3,4.2,4.6,6.3
			c1.6,2.1,3.3,4.2,4.9,6.3c0.8,1,1.5,2,2.2,3.1c0.8,1.1,1.8,2.3,2.3,3.6C139.6,201.6,141.6,200.7,141,199.3z"/>
		<path class="st4" d="M135.9,205c-0.9-2.3-2.8-4.5-4.3-6.4c-1.6-2.1-3.3-4.2-5-6.3c-1.7-2.1-3.3-4.2-4.9-6.3
			c-0.8-1.1-1.5-2.2-2.2-3.3c-0.6-1-1.1-2.1-2.1-2.8c-0.1-0.1-0.3,0-0.3,0.1c0,1.1,0.6,2.1,1.1,3.1c0.6,1.1,1.2,2.2,1.9,3.3
			c1.4,2.2,2.9,4.3,4.5,6.4c1.6,2.1,3.2,4.2,4.8,6.4c0.7,1,1.5,2.1,2.2,3.1c0.7,1.1,1.8,2.3,2.2,3.6
			C134.4,207.2,136.5,206.4,135.9,205z"/>
		<path class="st4" d="M128.2,210c-1-2.3-2.9-4.4-4.4-6.3c-1.7-2.1-3.4-4.1-5.1-6.2c-1.7-2-3.4-4.1-5-6.2c-0.8-1.1-1.5-2.2-2.3-3.3
			c-0.6-1-1.1-2.1-2.1-2.8c-0.1-0.1-0.3,0-0.3,0.2c0,1.1,0.6,2.1,1.1,3.1c0.6,1.1,1.3,2.2,2,3.2c1.4,2.2,3,4.2,4.6,6.3
			c1.6,2.1,3.3,4.2,4.9,6.3c0.8,1,1.5,2,2.2,3.1c0.8,1.1,1.8,2.3,2.3,3.6C126.8,212.3,128.8,211.4,128.2,210z"/>
		<path class="st4" d="M121.7,214.5c-1-2.3-2.9-4.4-4.4-6.3c-1.7-2.1-3.4-4.1-5.1-6.2c-1.7-2-3.4-4.1-5-6.2
			c-0.8-1.1-1.5-2.2-2.3-3.3c-0.6-1-1.1-2.1-2.1-2.8c-0.1-0.1-0.3,0-0.3,0.2c0,1.1,0.6,2.1,1.1,3.1c0.6,1.1,1.3,2.2,2,3.2
			c1.4,2.2,3,4.2,4.6,6.3c1.6,2.1,3.3,4.2,4.9,6.3c0.8,1,1.5,2,2.2,3.1c0.8,1.1,1.8,2.3,2.3,3.6C120.3,216.8,122.4,216,121.7,214.5z
			"/>
		<path class="st9" d="M197.2,308.2c-1.4-0.1-2.7,1.8-3.6,2.7c-0.6,0.6-1.1,1.1-1.6,1.7c-1.1-0.3-2.6,0-3.7,0.1
			c-1.2,0.1-2.4,0.3-3.6,0.5c-1.2,0.2-2.4,0.4-3.6,0.6c-0.6,0.1-1.2,0.3-1.8,0.5c-0.4,0.2-0.9,0.3-1.1,0.7c-0.1,0.1-0.1,0.3,0,0.4
			c0.4,0.3,0.8,0.3,1.3,0.3c0.6,0,1.3-0.1,1.9-0.2c1.2-0.2,2.4-0.3,3.6-0.5c1.2-0.1,2.4-0.3,3.7-0.4c0.5,0,1.1-0.1,1.6-0.1
			c-0.2,0.2-0.3,0.3-0.5,0.5c-2.5,2.7-4.8,5.6-7,8.5c-4.5,6-8.4,12.3-11.6,19c-0.9,1.8-1.7,3.7-2.5,5.6c-0.4,0.9-0.8,1.9-1.2,2.8
			c-0.5,1.1-0.5,1.8-0.3,2.9c0,0.2,0.3,0.2,0.4,0.2c0.7-0.3,1.3-0.6,1.7-1.3c0.4-0.9,0.7-1.8,1.1-2.7c0.7-1.7,1.5-3.4,2.3-5.1
			c1.6-3.3,3.3-6.5,5.1-9.7c3.7-6.3,7.9-12.2,12.6-17.8c1.3-1.6,2.7-3.1,4-4.6c0.7-0.7,1.3-1.4,2-2.1c0.6-0.6,1.3-1.2,1.3-2.1
			C197.5,308.3,197.4,308.2,197.2,308.2z"/>
		<path class="st9" d="M329.1,343.5c-3-6.6-7.2-12.7-11.7-18.3c-2.6-3.2-5.4-6.4-8.4-9.3c-1.4-1.4-2.9-2.9-4.3-4.3
			c-0.1-0.1-0.3-0.3-0.4-0.4c0,0,0,0,0.1,0c1.9,0.6,3.7,1.2,5.6,1.7c1.8,0.6,3.6,1.1,5.4,1.7c0.9,0.3,1.7,0.5,2.6,0.8
			c0.4,0.1,0.8,0.2,1.2,0c0.2,0,0.3-0.1,0.4-0.2c0.1-0.2,0.2-0.3,0.1-0.1c0.2-0.1,0.4-0.3,0.2-0.5c-0.1-0.1-0.2-0.5-0.3-0.7
			c-0.3-0.3-0.6-0.5-1-0.6c-0.8-0.3-1.6-0.5-2.4-0.7c-1.8-0.5-3.6-1-5.4-1.5s-3.6-1-5.4-1.5c-0.9-0.2-1.7-0.4-2.5-0.7
			c-0.3-0.1-0.5-0.2-0.8-0.2c-0.5-0.4-1.1-0.8-1.6-1c-0.4-0.2-0.9,0.3-0.8,0.8c0.5,1.6,2.1,2.8,3.2,4c1.2,1.3,2.5,2.6,3.7,4
			c2.4,2.8,4.9,5.6,7.2,8.4c4.7,5.7,9,11.6,12.2,18.2c0.8,1.7,1.6,3.4,2.3,5.1c0.4,1.1,0.9,3.8,2.5,3.7
			C333.3,351.8,329.6,344.7,329.1,343.5z"/>
		<path class="st9" d="M157.1,243.1c-0.7-2.2-4.3-0.9-5.8-0.5c-2.5,0.6-4.9,1.5-7.2,2.5c-2.3,0.9-4.4,2-6.6,3.2
			c-2.1,1.2-4.6,2.4-6.1,4.3c-0.5,0.6,0,1.8,0.9,1.5c2-0.8,3.8-2.3,5.7-3.3c2-1.1,4.1-2.2,6.2-3c2.1-0.9,4.2-1.6,6.4-2.2
			c1.1-0.3,2.2-0.6,3.3-0.8c0.9-0.2,2.1,0.1,2.9-0.5C157,243.8,157.2,243.5,157.1,243.1z"/>
		<path class="st9" d="M111.6,305.4c-1.6,1.2-2.8,3.3-4,4.9c-1.4,1.8-2.7,3.7-3.9,5.6c-1.2,1.9-2.2,3.8-3.2,5.8
			c-0.5,1-0.9,1.9-1.3,2.9c-0.4,1-0.6,2.1-1,3c-0.5,1.1,0.7,2.1,1.7,1.3c0.7-0.5,0.8-1.7,1.1-2.5c0.4-1.1,0.8-2.1,1.3-3.1
			c0.9-2.1,2-4,3.2-6c1.2-1.9,2.4-3.7,3.7-5.5c0.6-0.9,1.3-1.8,1.9-2.7c0.7-0.9,1.4-1.7,1.8-2.8
			C113.1,305.7,112.2,304.9,111.6,305.4z"/>
		<path class="st9" d="M367.8,253c-0.8-0.7-1.8-1.3-2.7-1.8c-2.1-1.1-4.3-2-6.6-2.7c-2.6-0.9-5.2-1.7-7.9-2.4
			c-1.3-0.3-2.6-0.7-3.9-0.9c-0.9-0.2-2.2-0.5-2.9,0.2c0,0,0,0.1,0,0.1c0.2,0.8,1.2,1.1,1.9,1.4c1.2,0.5,2.4,0.8,3.6,1.2
			c2.5,0.9,5.1,1.7,7.6,2.6c2.1,0.8,4.3,1.5,6.3,2.6c0.9,0.5,1.8,1.1,2.7,1.7c0.4,0.3,0.9,0.7,1.4,0.9c0.5,0.2,0.8,0.1,1.3,0
			c0.2,0,0.4-0.2,0.4-0.4C369,254.5,368.7,253.8,367.8,253z"/>
		<path class="st9" d="M402.9,323.6c-0.4-1-0.8-2-1.3-3c-0.9-2-2-4-3.2-5.9c-1.2-1.8-2.5-3.6-3.9-5.2c-1.2-1.5-2.9-3.8-5-4
			c-0.6,0-1,0.7-0.7,1.2c0.5,0.8,1.2,1.5,1.9,2.2c0.7,0.8,1.4,1.5,2,2.3c1.3,1.6,2.6,3.4,3.7,5.2c1.1,1.8,2.1,3.6,2.9,5.5
			c0.4,0.9,0.8,1.9,1.2,2.9c0.4,0.9,0.6,2.1,1.6,2.4c0.4,0.1,0.8-0.1,1.1-0.4C404,325.8,403.3,324.5,402.9,323.6z"/>
		<path class="st10" d="M262,282.2c-0.6-3-0.8-6.1-0.8-6.1l-24.3-2.1c0,0,0,11.2-2.3,13.8c-0.1,0.1-0.1,0.1-0.2,0.2
			c2.7,0.1,5.5-0.1,6.7-0.1c5.2-0.2,10.7-1,15.6-2.8C258.5,284.3,260.3,283.3,262,282.2z"/>
		<path class="st1" d="M220.1,235.4c0,0-7.9-1.1-7.9,5.9s7.3,7.3,7.3,7.3s3,33.7,30.6,33.7c25.7,0,28.9-33,28.9-33s7.3-2.1,6.8-7.3
			c-0.5-5.2-6.7-6.5-6.7-6.5s-23.7-6.9-30-27.1C249.2,208.4,239.5,230.8,220.1,235.4z"/>
		<path class="st11" d="M347.3,176.8c-0.6-0.3-1.2-0.5-1.8-0.7c-1-0.4-2-0.8-3-1.2c-1-0.4-2-0.8-3-1.2c-1-0.4-2.1-1.2-3.3-0.9
			c-0.4,0.1-0.8,0.6-0.6,1c0.4,1.1,1.7,1.6,2.6,2.2c0.9,0.6,1.9,1.1,2.8,1.5c1,0.5,2.1,1,3.1,1.4c1.1,0.4,2.6,1.3,3.7,0.5
			C348.9,178.7,348.2,177.3,347.3,176.8z"/>
		<path class="st11" d="M354.4,182c0-0.4-0.2-0.7-0.4-0.9c0,0-0.1-0.1-0.1-0.1c-0.3-0.3-0.6-0.4-1-0.6c0.1,0,0.2,0.1,0.3,0.1
			c-0.3-0.1-0.7-0.3-1-0.4c-0.1,0-0.2-0.1-0.3-0.1c-0.2-0.1-0.6-0.1-0.8,0c0,0-0.1,0-0.1,0c-0.4,0.1-0.7,0.5-0.7,0.9
			c0,0.1,0,0.2,0,0.3c0,0.1,0,0.2,0,0.2c0,0.1,0.1,0.2,0.2,0.4c0-0.1-0.1-0.2-0.1-0.3c0.1,0.5,0.7,1,1.1,1.3
			c0.4,0.3,0.9,0.5,1.5,0.5c0.4,0,0.8-0.1,1.1-0.4c0.1-0.1,0.1-0.2,0.2-0.3c0,0,0,0,0,0c0-0.1,0.1-0.1,0.1-0.2c0-0.1,0.1-0.2,0-0.3
			C354.4,182.1,354.4,182.1,354.4,182C354.4,182,354.4,182,354.4,182z"/>
		<path class="st11" d="M366.7,208.4c-0.1-0.1-0.1-0.2-0.2-0.2c-0.1-0.2-0.3-0.4-0.5-0.5c-0.1-0.1-0.3-0.1-0.5-0.2
			c-0.3-0.1-0.5-0.2-0.8-0.3c-0.3-0.1-0.6-0.2-0.9-0.2c-0.1,0-0.2,0-0.3,0c-0.2,0-0.3,0-0.5,0.1c-0.2,0.1-0.2,0.1,0,0
			c0,0-0.1,0-0.1,0c-0.4,0.1-0.7,0.6-0.6,1c0,0,0,0.1,0,0.1c0.1,0.3,0.3,0.6,0.5,0.9c0.1,0.1,0.3,0.3,0.5,0.4
			c0.1,0.1,0.2,0.2,0.3,0.2c0.7,0.4,1.6,0.9,2.4,0.4c-0.1,0-0.2,0.1-0.3,0.1c0.1,0,0.1,0,0.2,0c0.3-0.1,0.6-0.3,0.7-0.7
			C366.9,209.1,366.9,208.7,366.7,208.4z"/>
		<path class="st5" d="M424.6,260.7c-0.2-0.1-0.5-0.1-0.7-0.2c-0.1-1.1-0.3-2.3-0.4-3.4c-0.1-0.5-0.1-1-0.2-1.6c0.3,0,0.7,0,1,0
			c0.7,0.1,1.5,0.4,2.2,0c0.2-0.1,0.3-0.4,0.3-0.6c-0.5-1.2-2.2-1.3-3.3-1.4c-0.2,0-0.3,0-0.5,0c0-0.2-0.1-0.4-0.1-0.6
			c-0.3-0.9-1.4-0.6-1.5,0.2c0,0.2,0,0.4,0,0.6c-0.5,0.1-0.9,0.3-1.3,0.6c-1.9,1.2-3.3,3.7-2.2,5.9c0.7,1.4,2.3,1.8,3.9,2
			c0.1,1.1,0.1,2.2,0.1,3.2c0,0.6,0,1.2,0,1.9c-0.7,0-1.4,0.1-2,0.2c-0.3,0.1-0.8,0.2-1.1,0.4c-0.1,0-0.1,0.1-0.2,0.1
			c-0.9,1.1,0.8,2,1.7,2.1c0.7,0,1.5,0,2.3-0.1c0.6,0.8,2.2,0.8,2.5-0.3c1.1-0.2,2.2-0.5,3-1.3c0.9-0.8,1.5-2,1.5-3.2
			C429.2,263.1,426.8,261.3,424.6,260.7z M419.5,259.4c-0.3-0.4-0.2-1.1,0-1.5c0.3-0.8,0.9-1.4,1.7-1.8c0,0.5,0.1,0.9,0.1,1.4
			c0,0.9,0.1,1.8,0.1,2.6c-0.2,0-0.5-0.1-0.7-0.1C420.3,259.9,419.8,259.8,419.5,259.4z M425.9,266.8c-0.4,0.2-0.7,0.4-1.1,0.5
			c-0.1-0.6-0.2-1.1-0.2-1.6c-0.1-0.9-0.3-1.8-0.4-2.7c0,0,0,0,0,0c1,0.3,2,0.8,2.4,1.9C427,265.6,426.7,266.3,425.9,266.8z"/>
		<path class="st12" d="M432.6,252.1c-0.5-0.5-1-0.9-1.5-1.3c-0.5-0.4-1-0.7-1.5-1c-0.3-0.2-0.6-0.4-1-0.5c-0.3-0.1-0.6-0.3-1-0.2
			c-0.3,0-0.5,0.1-0.6,0.4c-0.1,0.2-0.1,0.5,0,0.8c0.2,0.3,0.5,0.5,0.8,0.7c0.2,0.2,0.5,0.3,0.7,0.5c0.1,0.1,0.3,0.2,0.4,0.3
			c0,0,0.1,0.1,0.1,0.1c0,0,0,0,0,0c0,0,0,0,0,0c0.2,0.2,0.5,0.4,0.7,0.6c0.4,0.4,0.8,0.8,1.2,1.2c0.1,0.1,0.2,0.2,0.3,0.3
			c0.1,0.1,0.2,0.2,0.3,0.3c0,0,0,0,0,0c0.1,0.1,0.2,0.2,0.3,0.3c0.1,0.2,0.3,0.3,0.5,0.4c0.7,0.5,1.5-0.2,1.5-0.9
			C433.8,253.3,433.1,252.6,432.6,252.1z"/>
		<path class="st12" d="M435,256.5c-0.1-0.2-0.1-0.3-0.3-0.4c-0.2-0.2-0.5-0.4-0.8-0.4c0,0,0,0,0,0c-0.1-0.1-0.3,0-0.3,0.1l0,0
			c0,0-0.1,0.1-0.1,0.1c0,0,0,0.1-0.1,0.2c0,0.1,0,0.1-0.1,0.2c0,0.1,0,0.3,0,0.4c0,0.2,0,0.3,0.1,0.5c0.1,0.2,0.1,0.4,0.3,0.5
			c0,0,0.1,0.1,0.1,0.1c0.1,0.1,0.2,0.2,0.3,0.2c0.2,0,0.3,0,0.5,0c0.1-0.1,0.2-0.1,0.3-0.2c0,0,0.1-0.1,0.1-0.2
			c0-0.1,0.1-0.2,0.1-0.3c0-0.1,0-0.1,0-0.2C435.2,256.8,435.1,256.7,435,256.5z"/>
		<circle class="st0" cx="250" cy="398.3" r="11.4"/>
		<path class="st10" d="M217.6,240c-0.3-0.3-0.6-0.5-1-0.7c-0.2-0.1-0.4-0.2-0.6-0.2c-0.2,0-0.3,0-0.5,0c-0.1,0,0.1,0,0,0
			c-0.1,0-0.2,0-0.3,0.1c-0.5,0.2-0.4,0.7,0,0.9c0,0,0.1,0,0.2,0.1c0,0-0.1,0,0,0c0.1,0,0.1,0.1,0.2,0.1c0.1,0,0.2,0.1,0.4,0.1
			c0,0,0.1,0,0.1,0c0.1,0,0.1,0.1,0.2,0.1s0.1,0.1,0.1,0.1c0,0,0,0,0.1,0.1c0,0,0,0,0,0c0,0,0,0,0,0c0.1,0.1,0.2,0.2,0.3,0.3
			c0,0,0.1,0.1,0.1,0.1c0,0,0,0,0.1,0.1c0,0,0,0,0,0c0,0,0,0.1,0.1,0.1c-0.8,0.3-1.3,1.5-1.3,2.3c0,0.6,0.3,1.2,0.9,1.5
			c0.6,0.3,1.3,0.2,1.7-0.3C219.3,243.2,218.8,241.1,217.6,240z"/>
		<path class="st10" d="M282.5,244.1c-0.1-0.8-1.1-1.3-1.8-1.1c0-0.1,0-0.1,0-0.2c0,0,0-0.1,0-0.1c0,0,0,0,0,0
			c0-0.2,0.1-0.3,0.1-0.5c0-0.1,0-0.1,0.1-0.2c0,0,0-0.1,0-0.1c0,0,0,0,0,0c0.1-0.1,0.1-0.3,0.2-0.4c0-0.1,0.1-0.2,0.1-0.2
			c0,0,0,0,0,0c0,0,0,0,0,0c0.1-0.1,0.2-0.2,0.3-0.4c0.2-0.2,0.2-0.4,0.2-0.6c0-0.1,0.1-0.2,0.1-0.3c0-0.1,0-0.2-0.1-0.2
			c-0.1-0.1-0.2-0.1-0.3-0.1c-0.3-0.1-0.5,0-0.7,0.1c-0.2,0.1-0.3,0.3-0.5,0.4c-0.3,0.3-0.5,0.6-0.6,1c-0.3,0.7-0.5,1.5-0.4,2.2
			c0.1,0.9,0.4,1.9,1.3,2.3C281.5,246.2,282.6,245.2,282.5,244.1z"/>
		<path class="st13" d="M269.4,179.7c-0.7-0.3-1.4-0.5-2.2-0.8c-1.3-0.4-2.7-0.8-4-1.2c-2.8-0.7-5.6-1.2-8.5-1.5
			c-5.6-0.6-11.3-0.3-16.9,0.8c-1.6,0.3-3.2,0.7-4.7,1.2c-0.8,0.2-1.5,0.5-2.3,0.8c-0.6,0.3-1.3,0.5-1.6,1.1c0,0.1,0,0.2,0.1,0.3
			c0.5,0.2,1,0.1,1.5,0c0.7-0.2,1.4-0.4,2.1-0.6c1.3-0.4,2.7-0.7,4.1-1c2.7-0.6,5.5-0.9,8.3-1.1c5.5-0.3,11,0.1,16.4,1.4
			c1.5,0.4,3,0.8,4.5,1.2c0.8,0.2,1.5,0.5,2.3,0.8c0.7,0.2,1.4,0.6,2,0.2c0.1-0.1,0.2-0.2,0.2-0.4C270.5,180.2,270,180,269.4,179.7z
			"/>
		<path class="st13" d="M293.7,234.6c-0.8-0.5-1.6-0.2-2.5-0.1c-0.9,0.1-1.7,0.2-2.6,0.3c-1.7,0.1-3.5,0.1-5.2,0
			c-3.5-0.3-7-1.1-10.2-2.4c-3.3-1.3-6.4-3.1-9-5.3c-2.9-2.4-5.3-5.3-7.5-8.3c-1.2-1.8-2.4-3.6-3.5-5.4c-1.1-1.9-2.1-3.8-3.3-5.7
			c-0.1-0.2-0.2-0.2-0.4-0.3c0-0.3-0.1-0.6-0.2-0.8c0-0.2-0.3-0.2-0.4-0.1c-0.3,0.3-0.6,0.5-0.8,0.8c-0.3,0.3-0.4,0.8-0.5,1.2
			c-0.3,0.8-0.6,1.6-1,2.4c-0.7,1.6-1.6,3.1-2.5,4.5c-1.9,2.9-4.2,5.6-6.7,8c-5.2,5.1-11.4,9.5-18.5,11.3c-2.1,0.5-4.2,0.8-6.4,0.8
			c-1.1,0-2.2,0-3.3-0.2c-1.1-0.1-2.1-0.3-3.2-0.3c-0.4,0-0.5,0.5-0.2,0.6c1.6,1,3.8,1.3,5.7,1.4c2,0.1,4-0.1,6-0.4
			c3.9-0.7,7.6-2.2,10.9-4.2c6.4-3.7,12.1-9,16.3-15.1c1.2-1.7,2.2-3.4,3.1-5.3c0.4-0.9,0.9-1.9,1.2-2.8c0-0.1,0.1-0.1,0.1-0.2
			c0.7,1.6,1.6,3.1,2.5,4.6c1,1.7,2,3.4,3.1,5c2.2,3.3,4.7,6.4,7.7,9c5.5,4.8,12.5,7.8,19.7,8.7c2,0.2,4.1,0.3,6.1,0.2
			c1-0.1,2.1-0.2,3.1-0.3c0.5-0.1,1.1-0.1,1.6-0.3c0.5-0.1,0.8-0.4,1.1-0.8C294,235,293.9,234.7,293.7,234.6z"/>
		<path class="st13" d="M210.2,254.2c-0.5-2-1.1-4-1.6-6.1c-0.3-1-0.6-2-0.9-3c-0.3-1-0.5-2.2-1.1-3c-0.2-0.2-0.5-0.1-0.6,0.1
			c-0.1,0.9,0.2,1.8,0.4,2.8c0.2,0.9,0.5,1.9,0.7,2.8c0.5,1.9,0.9,3.8,1.4,5.6c0.8,3.6,1.4,7.2,0.8,10.9c-1,6.8-4.8,12.9-6.5,19.5
			c-0.5,1.8-0.8,3.8-0.7,5.7c0.1,1.8,0.4,3.7,1.9,4.8c0.2,0.1,0.4,0,0.4-0.2c0-1.6-0.5-3.2-0.6-4.8c0-1.7,0.2-3.3,0.6-4.9
			c0.8-3.3,2.2-6.5,3.5-9.7c1.2-3.1,2.4-6.3,3-9.7C211.3,261.3,211,257.7,210.2,254.2z"/>
		<path class="st13" d="M215.8,277.8c1.3-4.5,3.1-9,3-13.8c0-2.4-0.3-5.2-1.9-7c-0.1-0.2-0.4,0-0.3,0.2c0.2,1.1,0.5,2.2,0.7,3.4
			c0.2,1.1,0.2,2.3,0.1,3.4c-0.1,2.3-0.5,4.6-1.2,6.8c-1.3,4.7-3.2,9.2-3.6,14.1c-0.1,1.2-0.1,2.5,0.2,3.7c0.3,1.2,0.9,2.1,1.8,2.9
			c0.1,0.1,0.3,0,0.2-0.1c-0.3-1-0.4-2.1-0.5-3.2c-0.1-1.1-0.1-2.1-0.1-3.2C214.5,282.5,215.1,280.1,215.8,277.8z"/>
		<path class="st13" d="M225,285.1c-0.2-1-0.2-2-0.1-3c0.1-1,0.2-2,0.3-3c0.1-0.5,0.1-0.9,0.3-1.4c0.1-0.3,0.4-0.7,0.4-1.1
			c0-0.1-0.1-0.2-0.2-0.3c-0.4-0.2-0.9,0.3-1.2,0.6c-0.4,0.5-0.6,1-0.7,1.6c-0.3,1.2-0.5,2.4-0.5,3.5c-0.1,1.2-0.1,2.4,0.3,3.5
			c0.3,1.1,1,2,2,2.6c0.2,0.1,0.3-0.1,0.2-0.2C225.3,287.1,225.2,286.1,225,285.1z"/>
		<path class="st13" d="M289.4,264.8c-0.6-3.7-0.6-7.4,0.1-11.2c0.4-2.1,0.9-4.1,1.4-6.1c0.2-1,0.5-2,0.7-3c0.2-1,0.6-2.1,0.4-3.1
			c0-0.2-0.2-0.3-0.4-0.1c-0.5,0.7-0.8,1.5-1,2.3c-0.3,0.9-0.6,1.9-0.9,2.8c-0.5,1.8-1,3.6-1.5,5.4c-0.9,3.6-1.2,7.2-0.8,10.8
			c0.7,6.7,3.1,13.2,2.8,20.1c-0.1,1.7-0.3,3.4-0.8,5.1c-0.5,1.6-1.3,3.1-1.7,4.7c-0.1,0.2,0.2,0.5,0.5,0.3c1.3-0.9,2-2.2,2.6-3.7
			c0.5-1.4,0.8-2.9,1-4.4c0.4-3.1,0.1-6.2-0.4-9.3C290.9,271.9,289.9,268.4,289.4,264.8z"/>
		<path class="st13" d="M284.8,272.5c-0.2-2.3-0.7-4.6-1.3-6.9c-0.3-1.3-0.6-2.6-0.9-3.9c-0.1-0.6-0.2-1.3-0.4-2
			c-0.1-0.7-0.4-1.5-0.5-2.2c0-0.1-0.2-0.1-0.2,0c0,0.6-0.2,1.1-0.3,1.6c0,0.6,0,1.2,0.1,1.9c0.1,1.1,0.3,2.3,0.5,3.4
			c0.4,2.3,0.9,4.5,1.2,6.9c0.5,4.3,0.2,8.8-1,13c-0.3,1.2-0.7,2.4-1.2,3.6c-0.4,1.1-0.8,2.2-0.8,3.4c0,0.2,0.2,0.2,0.3,0.1
			c1.7-1.4,2.4-3.7,3-5.7c0.6-2.1,1.1-4.4,1.3-6.6C285,276.9,285,274.7,284.8,272.5z"/>
		<path class="st13" d="M276.4,279c-0.1-0.7-0.2-1.4-0.5-2c-0.1-0.3-0.2-0.5-0.4-0.8c-0.1-0.2-0.3-0.2-0.4-0.4
			c-0.1-0.1-0.3-0.1-0.3,0.1c0,0.1-0.1,0.3-0.1,0.4c-0.1,0.2,0,0.6,0,0.8c0.1,0.5,0.1,1.1,0.2,1.6c0.1,1,0.1,2.1,0.1,3.1
			c-0.1,1-0.2,2-0.4,3.1c-0.1,0.6-0.2,2-1,2.1c-0.1,0-0.2,0.2-0.1,0.3c0.7,0.6,1.6,0,2.1-0.6c0.7-1,0.8-2.5,0.9-3.6
			C276.7,281.7,276.6,280.3,276.4,279z"/>
		<path class="st13" d="M242.9,197.8c-0.1-0.1-0.3-0.1-0.3,0.1c0.5,1.9,0.1,4-0.4,5.8c-0.5,1.7-1.2,3.4-2,4.9
			c-1.5,3-3.5,5.7-5.8,8.2c-4.6,4.9-10.5,8.5-17,10.4c-1.8,0.5-3.7,1-5.6,1.2c-1.1,0.1-2.1,0.1-3.2,0c-1-0.1-2-0.5-3-0.8
			c-0.1,0-0.2,0.1-0.1,0.2c1.1,1.5,3.2,1.8,4.9,1.9c1.9,0.1,3.8-0.2,5.7-0.6c3.5-0.7,6.9-2.1,10.1-3.8c6.3-3.5,11.6-8.8,15-15.1
			c1-1.9,1.9-3.8,2.5-5.9C244.4,202.1,244.3,199.8,242.9,197.8z"/>
		<path class="st13" d="M238.9,190c0-0.1-0.2-0.1-0.3,0c-0.4,1.5-0.9,2.9-1.2,4.5c-0.3,1.5-0.7,3-1.3,4.5c-1,2.9-2.5,5.7-4.3,8.2
			c-3.6,5.1-8.6,9-14.3,11.4c-1.6,0.7-3.3,1.2-4.9,1.7c-1.7,0.5-3.4,0.7-5.1,1.2c-0.3,0.1-0.2,0.4,0.1,0.5c3.2,0.4,6.6-0.5,9.5-1.6
			c3.1-1.1,6-2.6,8.6-4.6c5.2-3.9,9.2-9.2,11.6-15.2c0.7-1.7,1.2-3.5,1.6-5.3c0.2-0.9,0.3-1.7,0.3-2.6
			C239.2,191.8,239.1,190.9,238.9,190z"/>
		<path class="st13" d="M231.7,188.6c-0.4,1.2-1,2.3-1.5,3.4c-0.5,1.1-0.9,2.2-1.5,3.3c-1,2.2-2.2,4.2-3.6,6.1
			c-2.8,3.9-6.5,7.2-10.6,9.7c-1.1,0.7-2.3,1.4-3.5,2c-0.6,0.3-1.3,0.6-1.9,0.9c-0.3,0.1-1.7,0.9-1.8,0.4c0-0.1-0.1-0.1-0.2,0
			c-0.1,0.3,0,0.5,0.2,0.7c0.4,0.3,0.9,0.2,1.4,0.1c1.3-0.4,2.5-0.8,3.8-1.3c2.5-1.1,4.8-2.5,6.9-4.1c4.2-3.3,7.7-7.5,10.2-12.3
			c0.7-1.3,1.3-2.7,1.8-4.1c0.5-1.5,0.5-3,0.7-4.5C232,188.5,231.7,188.4,231.7,188.6z"/>
		<path class="st13" d="M286.3,224c-1.3,0-2.7,0.2-4,0.3c-1.4,0.1-2.8,0-4.1-0.2c-2.7-0.5-5.3-1.6-7.6-3.2c-5-3.3-8.3-8.4-11.3-13.5
			c-0.9-1.5-1.8-3-2.6-4.5c-0.4-0.8-0.9-1.7-1.1-2.6c-0.2-0.8-0.2-1.6-0.5-2.3c0-0.1-0.1,0-0.1,0c-1.1,1-0.4,3.2,0.1,4.4
			c0.6,1.5,1.5,3,2.3,4.5c1.5,2.8,3.2,5.6,5.1,8.1c3.7,4.9,8.6,9.1,14.7,10.5c3,0.7,6.9,1,9.4-1.2C286.5,224.2,286.4,224,286.3,224z
			"/>
		<path class="st13" d="M288.1,213.6c-0.6,1.2-2.3,1.4-3.5,1.3c-1.5-0.2-2.9-0.6-4.3-1.1c-2.6-0.8-5.2-1.9-7.4-3.5
			c-4.1-2.9-7.1-7-9.7-11.2c-0.8-1.2-1.5-2.5-2.2-3.8c-0.7-1.2-1.3-2.4-2.2-3.5c-0.1-0.1-0.2,0-0.2,0.1c0.3,1.3,0.9,2.5,1.4,3.7
			c0.6,1.3,1.2,2.5,1.9,3.7c1.3,2.4,2.8,4.7,4.5,6.9c1.7,2.1,3.6,4,5.9,5.5c2.5,1.7,5.4,2.9,8.3,3.8c1.6,0.5,3.4,1.1,5.1,0.9
			c1.5-0.2,2.5-1.3,2.7-2.7C288.4,213.6,288.2,213.4,288.1,213.6z"/>
		<path class="st13" d="M287.8,207.3c-0.6-0.7-1.5-1-2.3-1.3c-0.9-0.3-1.7-0.7-2.5-1.1c-1.7-0.8-3.3-1.9-4.8-3.1
			c-2.9-2.4-5.3-5.3-7.1-8.6c-0.5-0.9-0.9-1.9-1.3-2.9c-0.2-0.5-0.4-1-0.6-1.5c-0.2-0.5-0.5-1-0.7-1.5c0-0.1-0.2-0.1-0.2,0
			c0.1,0.5,0,1,0.1,1.5c0.1,0.5,0.2,1,0.3,1.5c0.3,0.9,0.6,1.9,1,2.8c0.8,1.8,1.8,3.5,2.9,5.1c2.3,3.2,5.4,5.9,8.8,7.8
			c1,0.5,1.9,1,3,1.4c1,0.4,2.2,0.8,3.2,0.5C287.9,207.7,287.9,207.5,287.8,207.3z"/>
		<path class="st13" d="M257.1,161.6c-1.3-0.3-2.5-1-3.7-1.5c-1.3-0.5-2.7-0.8-4-0.8c-1.4,0-2.8,0.2-4.1,0.6
			c-0.7,0.2-1.3,0.5-1.9,0.9c-0.3,0.2-0.5,0.4-0.7,0.6c-0.3,0.3-0.2,0.5-0.3,0.8c0,0,0,0.1,0.1,0.1c0.2,0,0.4,0.1,0.7,0
			c0.3-0.1,0.6-0.2,0.9-0.4c0.6-0.3,1.2-0.5,1.8-0.7c1.3-0.4,2.7-0.5,4.1-0.4c1.4,0.1,2.6,0.6,3.8,1.2c1,0.5,2.8,1.2,3.4-0.2
			C257.2,161.8,257.2,161.7,257.1,161.6z"/>
		<path class="st13" d="M265.2,169.9c-0.8-0.9-2.2-1.1-3.3-1.4c-1.2-0.3-2.4-0.7-3.7-1c-2.4-0.6-4.9-1.3-7.4-1.6
			c-4.3-0.6-8.8-0.1-12.8,1.6c-1.1,0.5-2.2,1-3.2,1.7c-0.8,0.5-2.1,1.3-2.3,2.3c0,0.1,0,0.1,0.1,0.1c0.9,0,1.8-0.7,2.5-1.1
			c0.9-0.5,1.8-1,2.8-1.4c1.9-0.8,3.9-1.3,5.9-1.6c4.6-0.7,8.9,0.4,13.3,1.5c1.3,0.3,2.7,0.7,4,1c1.1,0.3,2.7,0.8,3.8,0.4
			C265.2,170.2,265.3,170,265.2,169.9z"/>
		<path class="st13" d="M259.7,174.9c-3.7-1.5-7.5-2.6-11.6-2.8c-1.9-0.1-3.9,0-5.8,0.3c-1,0.2-1.9,0.4-2.9,0.6
			c-0.9,0.3-1.9,0.5-2.7,1.1c-0.3,0.2,0,0.6,0.3,0.7c0.9,0,1.9-0.3,2.7-0.6c0.9-0.2,1.9-0.4,2.9-0.5c1.9-0.3,3.8-0.3,5.8-0.2
			c1.9,0.1,3.8,0.4,5.7,0.9c1.8,0.5,3.7,1.5,5.6,0.8C259.9,175.3,259.9,175,259.7,174.9z"/>
		<path class="st3" d="M239.7,236.2c-0.3-1.1-1.5-1.7-2.5-2.1c-0.8-0.3-1.8-0.5-2.7-0.4c-1.7,0.2-4.5,1.1-4.5,3.3
			c0,0.6,0.5,0.9,1.1,0.8c-0.1,0-0.1,0,0,0c0.2,0,0.4-0.1,0.6-0.2c0.2-0.1,0.3-0.2,0.5-0.2c0.3-0.2,0.5-0.4,0.8-0.5
			c0.1,0,0.1-0.1,0.2-0.1c0,0,0.1,0,0.1-0.1c0.1-0.1,0.3-0.1,0.4-0.1c0.2,0,0.3-0.1,0.5-0.1c0,0,0,0,0.1,0c0.1,0,0.2,0,0.2,0
			c0.2,0,0.3,0,0.5,0c0.1,0,0.2,0,0.3,0c0,0,0,0,0,0c0.3,0.1,0.7,0.2,1,0.3c0,0,0,0,0,0c0.1,0,0.1,0.1,0.2,0.1
			c0.1,0.1,0.3,0.2,0.4,0.3c0.1,0.1,0.2,0.1,0.3,0.2l0,0c0,0,0,0,0.1,0.1c0.2,0.2,0.5,0.3,0.8,0.4
			C239.1,237.9,239.9,237.2,239.7,236.2z"/>
		<path class="st3" d="M268.2,236.2c-0.3-1.1-1.5-1.7-2.5-2.1c-0.8-0.3-1.8-0.5-2.7-0.4c-1.7,0.2-4.5,1.1-4.5,3.3
			c0,0.6,0.5,0.9,1.1,0.8c-0.1,0-0.1,0,0,0c0.2,0,0.4-0.1,0.6-0.2c0.2-0.1,0.3-0.2,0.5-0.2c0.3-0.2,0.5-0.4,0.8-0.5
			c0.1,0,0.1-0.1,0.2-0.1c0,0,0.1,0,0.1-0.1c0.1-0.1,0.3-0.1,0.4-0.1c0.2,0,0.3-0.1,0.5-0.1c0,0,0,0,0.1,0c0.1,0,0.2,0,0.2,0
			c0.2,0,0.3,0,0.5,0c0.1,0,0.2,0,0.3,0c0,0,0,0,0,0c0.3,0.1,0.7,0.2,1,0.3c0,0,0,0,0,0c0.1,0,0.1,0.1,0.2,0.1
			c0.1,0.1,0.3,0.2,0.4,0.3c0.1,0.1,0.2,0.1,0.3,0.2l0,0c0,0,0,0,0.1,0.1c0.2,0.2,0.5,0.3,0.8,0.4
			C267.6,237.9,268.4,237.2,268.2,236.2z"/>
		<path class="st3" d="M237.1,243.3c-0.5-1.1-1.4-1.9-2.7-1.6c-0.5,0.1-0.9,0.4-1.2,0.8c-0.4,0.5-0.8,1.1-0.9,1.8
			c-0.1,0.7-0.1,1.4,0.1,2.2c0.1,0.6,0.4,1.1,0.7,1.6c0.3,0.5,0.8,0.9,1.4,1c0.7,0.2,1.5-0.1,2-0.6
			C237.7,247.5,237.8,245,237.1,243.3z"/>
		<path class="st3" d="M266,243.3c-0.5-1.1-1.4-1.9-2.7-1.6c-0.5,0.1-0.9,0.4-1.2,0.8c-0.4,0.5-0.8,1.1-0.9,1.8
			c-0.1,0.7-0.1,1.4,0.1,2.2c0.1,0.6,0.4,1.1,0.7,1.6c0.3,0.5,0.8,0.9,1.4,1c0.7,0.2,1.5-0.1,2-0.6C266.6,247.5,266.7,245,266,243.3
			z"/>
		<g>
			<path class="st10" d="M253,256.2L253,256.2C253,256.3,253,256.3,253,256.2z"/>
			<path class="st10" d="M253,255.7c-0.1-0.3-0.4-0.5-0.7-0.5c-0.1,0-0.2,0-0.3,0.1c0,0-0.1,0-0.1,0.1c0,0,0,0,0,0
				c-0.2,0-0.3,0.1-0.4,0.2c-0.2,0.1-0.5,0.3-0.7,0.4c-0.1,0.1-0.2,0.1-0.3,0.2c0,0,0,0,0,0c0,0,0,0,0,0c-0.1,0-0.1,0-0.2,0.1
				c-0.1,0-0.2,0.1-0.4,0.1c0,0,0,0,0,0c-0.1,0-0.1,0-0.2,0c-0.1,0-0.2,0-0.4,0c0,0,0,0,0,0c-0.1,0-0.1,0-0.2,0
				c-0.1,0-0.3-0.1-0.4-0.1c-0.1,0-0.1,0-0.2-0.1c0,0,0,0,0,0c0,0-0.1,0-0.1,0c0,0-0.2-0.1-0.2-0.1c0,0-0.1,0-0.1-0.1
				c-0.1-0.1-0.2-0.1-0.3-0.2c-0.2-0.1-0.3-0.2-0.5-0.3c-0.2-0.1-0.4-0.2-0.6,0s-0.4,0.4-0.3,0.7c0,0,0,0,0,0c0,0.6,0.7,1.3,1.1,1.7
				c0.6,0.5,1.5,0.7,2.3,0.8c0.8,0,1.5-0.2,2.2-0.6c0.4-0.2,0.7-0.5,1-0.9c0.2-0.2,0.2-0.5,0.3-0.8c0,0,0,0,0-0.1
				C253.1,256,253.1,255.8,253,255.7z"/>
		</g>
		<path class="st10" d="M252.7,263.8c0-0.3-0.3-0.6-0.6-0.6c-0.2,0-0.4-0.1-0.6,0c-0.2,0-0.4,0.2-0.6,0.3c0,0,0,0,0,0
			c0,0-0.1,0-0.1,0.1c-0.1,0.1-0.2,0.1-0.3,0.1c0,0,0,0-0.1,0c0,0,0,0,0,0c-0.1,0-0.2,0.1-0.3,0.1c-0.1,0-0.2,0-0.3,0.1c0,0,0,0,0,0
			c0,0-0.1,0-0.1,0c-0.2,0-0.4,0-0.6,0c0,0-0.1,0-0.1,0c-0.1,0-0.2,0-0.3-0.1c-0.1,0-0.2-0.1-0.3-0.1c0,0,0,0,0,0
			c-0.1,0-0.1-0.1-0.2-0.1c-0.2-0.1-0.5-0.2-0.7-0.1c-0.3,0-0.6,0.2-0.6,0.6c0,0.6,0.5,1.1,1.1,1.3c0.5,0.3,1.1,0.4,1.7,0.4
			c0.5,0,1-0.1,1.5-0.3c0.3-0.1,0.5-0.2,0.8-0.4c0.2-0.1,0.4-0.3,0.5-0.5C252.7,264.4,252.7,264.1,252.7,263.8z"/>
		<path class="st14" d="M235,254.2c-0.4-0.6-0.9-1.1-1.6-1.4c-1.2-0.5-2.6-0.7-3.9-0.5c-0.2,0-0.3,0-0.5,0.1c-0.1,0-0.1,0-0.2,0
			c-1.6,0.3-3.1,1.1-3.3,2.9c-0.2,1.6,1.2,2.9,2.7,3.4c0.7,0.2,1.5,0.3,2.2,0.3c0.7,0,1.4,0,2.1,0c0.8-0.1,1.6-0.4,2.2-0.9
			c0.6-0.5,0.9-1.3,0.9-2C235.6,255.3,235.4,254.7,235,254.2z"/>
		<path class="st14" d="M271.8,254.2c-0.4-0.6-0.9-1.1-1.6-1.4c-1.2-0.5-2.6-0.7-3.9-0.5c-0.2,0-0.3,0-0.5,0.1c-0.1,0-0.1,0-0.2,0
			c-1.6,0.3-3.1,1.1-3.3,2.9c-0.2,1.6,1.2,2.9,2.7,3.4c0.7,0.2,1.5,0.3,2.2,0.3c0.7,0,1.4,0,2.1,0c0.8-0.1,1.6-0.4,2.2-0.9
			c0.6-0.5,0.9-1.3,0.9-2C272.4,255.3,272.2,254.7,271.8,254.2z"/>
		<path class="st9" d="M273.6,292.8c-0.2-0.7-1.2-0.7-1.4,0c-0.6,2.3-0.3,4.9-0.4,7.3c0,2.5-0.1,5.1-0.3,7.6
			c-0.3,5-0.7,10.1-1.4,15.1c-0.7,5-1.5,10-2.6,14.9c-0.5,2.5-1.1,5-1.8,7.5c-0.3,1.2-0.6,2.5-1,3.7c-0.3,1-0.7,2-0.8,3
			c-0.1,0.4,0.3,0.7,0.7,0.9c0.1,0,0.1,0,0.2,0.1c0.4,0.2,1.1-0.1,1.3-0.5c1-2.1,1.4-4.7,2-7c0.6-2.5,1.2-5,1.7-7.5
			c1-4.9,1.9-9.9,2.5-14.9c0.7-5.1,1.1-10.1,1.4-15.2c0.1-2.5,0.2-5.1,0.2-7.6C274,297.8,274.2,295.2,273.6,292.8z"/>
		<path class="st9" d="M228.8,322.4c-0.9-4.9-1.6-9.8-2.1-14.7c-0.2-2.5-0.4-5-0.4-7.5c0-1.3,0-2.5,0-3.8c0-1.2,0.2-2.4-0.1-3.5
			c-0.1-0.5-1-0.7-1.3-0.2c-0.9,2-0.6,4.8-0.6,7c0,2.5,0.1,5,0.3,7.5c0.4,4.9,1.1,9.8,1.9,14.6c1.6,10,3.6,19.9,4.6,30
			c0.1,1.4,2.4,1.5,2.3,0C232.7,341.9,230.6,332.1,228.8,322.4z"/>
		<path class="st9" d="M199.8,337.5c-1,0.8-1.5,2.3-2.1,3.5c-0.6,1.2-1.2,2.5-1.8,3.7c-0.6,1.3-1.1,2.5-1.6,3.8
			c-0.5,1.2-1.3,2.6-1.1,3.9c0.1,0.7,1,0.7,1.4,0.4c0.5-0.4,0.8-1.2,1-1.9c0.2-0.6,0.5-1.2,0.7-1.8c0.5-1.2,1-2.5,1.5-3.7
			c0.5-1.2,1.1-2.5,1.6-3.7c0.5-1.2,1.3-2.4,1.5-3.7C201.1,337.3,200.2,337.1,199.8,337.5z"/>
		<path class="st9" d="M308.2,351.1c-1.1-2.9-2.4-5.8-3.7-8.6c-0.6-1.4-1.3-2.7-2-4.1c-0.3-0.6-0.6-1.3-1.1-1.6
			c-0.5-0.3-1.1-0.4-1.5,0.1c-0.2,0.3-0.2,0.6,0.1,0.8c0.4,0.3,0.6,0.8,0.8,1.3c0.3,0.6,0.5,1.2,0.8,1.8c0.5,1.2,1.1,2.5,1.6,3.7
			c1,2.4,1.9,4.9,2.8,7.4C306.5,353.1,308.7,352.5,308.2,351.1z"/>
	</g>
	<g>
		<path class="st2" d="M122.4,403.4c0,0,21.5-6.9,20.3,12.9c-1.2,19.8-14.3,22-22.4,18.7v-5.5c0,0,11.8,3.5,13.8-7.4
			c2-10.9-3.2-14-10.8-11.6L122.4,403.4z"/>
		<path class="st2" d="M120.3,443.4H90.1c-1.7,0-3.2-1.3-3.3-3.1l-3.5-44.6c-0.2-1.9,1.4-3.6,3.3-3.6h37.1c1.9,0,3.5,1.7,3.3,3.6
			l-3.5,44.6C123.5,442,122,443.4,120.3,443.4z"/>
	</g>
	<path class="st3" d="M457.2,460.5H42.8c-4.7,0-8.5-3.8-8.5-8.5l0,0c0-4.7,3.8-8.5,8.5-8.5h414.5c4.7,0,8.5,3.8,8.5,8.5l0,0
		C465.8,456.6,461.9,460.5,457.2,460.5z"/>
	<g>
		<path class="st15" d="M244.6,117c0.5-0.4-3.1-7.5-5.5-10.2c-2.4-2.8-15.3-12.5-11-32.9c4.3-20.3,27.2-29.4,43-15.1
			c15.7,14.2,2.7,40.1-1.1,45.7c-3.1,4.6-5.5,11.5-5.5,11.5L244.6,117z"/>
		<path class="st3" d="M250.1,130.5c0,0-0.1,6.6,4.9,6.4s5.3-7.5,5.3-7.5L250.1,130.5z"/>
		<path class="st4" d="M244.5,122.7c0,0-2.4,4.3,1,7.3c3.3,3,13.9,1.8,17.2,0.3s2.9-5.3,2.4-7.8c-0.6-2.5-14-0.7-14.5-0.8
			C250,121.6,244.5,122.7,244.5,122.7z"/>
		<path class="st4" d="M243.6,116.1c-0.9,0.9-1.1,2.3-1,3.9c0.1,1.5,0.8,3,1.9,4c3.7,3.4,15.3,2,19,0.3c1.7-0.8,2.7-2.3,2.9-4.1
			c0.3-1.8,0.5-4.1-1-5.4c-1.6-1.4-4.3-0.7-6.2-0.6c-2.1,0.1-4.2,0.3-6.3,0.3c-2.4,0.1-4.8-0.2-7.1,0.3
			C244.9,115.1,244.1,115.5,243.6,116.1z"/>
		<path class="st16" d="M266.4,90.3c-1.2-1.4-3.4-1.9-5.2-1.9c-1.8,0.1-3.4,0.8-4.7,1.8c-1-0.8-2.2-1.3-3.5-1.4
			c-2-0.2-3.8,0.4-5.2,1.6c0,0-0.1-0.1-0.1-0.1c-1.9-0.9-4.1-0.4-5.6,1.1c-1.6,1.7-2.1,4.2-2,6.4c0.1,2.3,0.6,4.5,1.7,6.6
			c1.1,2.2,2.6,3.7,4.5,5.1c0.8,0.6,1.7-0.7,1-1.3c-1.9-1.7-3.4-4.2-4.2-6.7c-0.7-2.3-1.2-5.4,0-7.6c0.6-1,1.6-1.9,2.8-1.7
			c0.1,0,0.1,0,0.2,0.1c-0.5,0.8-0.8,1.7-0.9,2.7c-0.2,1.7,0.3,3.7,1.7,4.9c1.3,1,3.3,1,4.4-0.3c1.3-1.6,0.2-3.9-0.6-5.5
			c-0.4-0.8-0.8-1.5-1.4-2.2c0.5-0.3,1-0.6,1.5-0.7c1.4-0.3,2.8,0,3.8,0.8c-0.7,1.1-1.1,2.3-1.2,3.7c-0.1,1.7,0.5,4,2.5,4.2
			c1.9,0.2,2.6-1.8,2.8-3.3c0.2-1.6-0.2-3.2-1-4.5c1.3-1.1,3.1-1.5,4.9-1c0.6,0.2,1.4,0.5,1.8,1.1c0.4,0.6,0.3,1.5,0.4,2.2
			c0.1,1.6,0.1,3.2-0.1,4.8c-0.3,3.1-1.3,5.8-2.6,8.6c-0.1-0.1-0.3-0.1-0.4,0.1c-0.7,0.8-0.3,2.1,0.8,2.2c0.5,0.1,1-0.1,1.2-0.5
			c2.4-3.8,3.4-8.7,3.4-13.1C267.5,94.5,267.6,91.8,266.4,90.3z M248.9,98.3c-0.7-0.3-1-1.2-1.1-1.8c-0.2-0.9,0-1.8,0.3-2.6
			c0.1,0.1,0.2,0.3,0.3,0.4c0.5,0.9,1.4,2.2,1.4,3.3C249.9,98.2,249.5,98.5,248.9,98.3z M256.3,97.4c-0.3-0.2-0.2-1.2-0.2-1.6
			c0-0.7,0.2-1.3,0.5-1.9c0.1,0.2,0.2,0.4,0.2,0.6C256.9,95,257,97.7,256.3,97.4z"/>
		<path class="st16" d="M242.8,60.5c-1.2,0.1-2.3,0.5-3.3,1.2c-0.8,0.6-1.6,1.2-2.2,1.9c-1.2,1.3-2.3,2.8-3.1,4.5
			c-0.9,1.8-1.5,3.7-2,5.6c-0.3,1-0.7,2.1-0.6,3.2c0,0.8,0.1,1.6,0.6,2.3c0.6,0.8,1.6,1.3,2.7,1c2.2-0.6,2.7-3.2,3.4-5.1
			c0.1-0.4,0.3-0.7,0.4-1.1c0,0,0,0,0,0c0.1-0.2,0.2-0.4,0.3-0.6c0.3-0.7,0.7-1.5,1.1-2.2c0.3-0.6,0.7-1.1,1.1-1.7c0,0,0,0,0,0
			c0.1-0.1,0.2-0.2,0.2-0.3c0.2-0.3,0.5-0.5,0.7-0.8c0.2-0.2,0.5-0.5,0.8-0.7c0.1-0.1,0.2-0.2,0.4-0.3c0,0,0.2-0.2,0.3-0.2
			c0,0,0,0,0.1,0c0.1-0.1,0.3-0.2,0.4-0.3c0.7-0.5,1.1-1,1.6-1.7C246.9,63.3,245,60.3,242.8,60.5z"/>
		<path class="st16" d="M255.4,56c-0.8-0.5-1.6-0.5-2.4-0.4c-0.6,0.1-1.2,0.2-1.8,0.3c-0.6,0.1-1.1,0.4-1.7,0.7
			c-0.7,0.3-1.4,1.1-1.7,1.9c-0.5,1.1-0.1,2.3,1,2.8c0,0,0.1,0,0.1,0.1c0,0-0.1,0-0.1-0.1c0.3,0.2,0.7,0.4,1.1,0.4
			c0.2,0,0.4,0,0.6,0.1c0.2,0,0.4,0,0.6,0c0.7-0.1,1.3-0.2,2-0.3c-0.3,0-0.5,0.1-0.8,0.1c1.1-0.1,2.2,0,3.1-0.6
			c0.8-0.6,1.4-1.4,1.4-2.4C256.8,57.4,256.2,56.5,255.4,56z"/>
		<g>
			<path class="st15" d="M219.5,109.3C219.5,109.3,219.5,109.3,219.5,109.3L219.5,109.3z"/>
			<path class="st15" d="M226.8,104.9c-0.1-0.3-0.3-0.5-0.6-0.7c-0.4-0.3-0.7-0.3-1.1-0.4c0,0,0,0,0,0c0,0-0.1,0-0.1,0
				c0,0-0.1,0-0.1,0c-0.4-0.1-0.8-0.1-1.2,0c-0.2,0-0.4,0.1-0.5,0.1c-0.4,0.1-0.7,0.2-1.1,0.3c-1.1,0.4-2.2,0.8-2.9,1.8
				c-0.1,0.1-0.2,0.3-0.4,0.4c-0.1,0.1-0.2,0.3-0.2,0.4c0,0,0,0.1,0,0.1c0,0-0.1,0.1-0.1,0.1c-0.5,0.8,0,1.9,0.9,2.1
				c0.1,0,0.1,0,0.2,0.1c-0.1,0-0.2-0.1-0.5-0.3c0.3,0.3,0.7,0.5,1.1,0.5c0.2,0,0.3,0,0.5,0c0.6,0.2,1.3,0.1,1.8-0.1
				c0.4-0.1,0.7-0.3,1.1-0.4c0.5-0.2,1-0.4,1.4-0.7c0.2-0.1,0.3-0.2,0.5-0.3c0.4-0.3,0.6-0.6,0.9-0.9l0.1-0.1
				C226.9,106.4,227.1,105.7,226.8,104.9z"/>
		</g>
		<path class="st15" d="M220.2,78.9c-0.9-1-2.5-1.1-3.8-1c-0.5,0-1,0.1-1.5,0.2c-0.5,0.1-0.9,0.1-1.3,0.4c-0.1,0.1-0.2,0.1-0.3,0.2
			c-0.3,0.2-0.5,0.4-0.7,0.6c-0.2,0.2-0.3,0.5-0.4,0.7c0,0.1,0,0.1,0.1-0.1c-0.3,0.6-0.3,1.4,0.2,1.9c-0.4-0.4,0.2,0.3,0.2,0.3
			c0.3,0.3,0.7,0.5,1.1,0.6c0.4,0.1,0.8,0.3,1.2,0.2c0.7-0.1,1.4-0.1,2-0.3c1.3-0.3,2.7-0.7,3.4-1.9
			C220.9,80.1,220.7,79.4,220.2,78.9z"/>
		<path class="st15" d="M227.7,55.4c0-0.1-0.1-0.1-0.1-0.2c0-0.1-0.1-0.2-0.1-0.3c-0.1-0.3-0.4-0.5-0.6-0.7c-0.4-0.3-0.8-0.7-1.3-1
			c-0.5-0.3-1.1-0.4-1.6-0.6c-0.2-0.1-0.4-0.1-0.5-0.2c-0.3-0.1-0.6-0.1-0.9-0.1c-0.5-0.1-1-0.1-1.5,0.1c-0.2,0.1-0.4,0.1-0.6,0.2
			c-0.4,0.1-0.8,0.4-1,0.8c-0.2,0.4-0.3,0.8-0.2,1.3c0.2,0.9,0.6,1.7,1.4,2.2c0.6,0.4,1.2,0.6,1.9,0.7c0.7,0.1,1.4,0.3,2,0.2
			c0.2,0,0.5,0,0.7,0c0.3,0,0.5,0,0.8,0c0.1,0,0.2,0,0.2,0c0.5,0,1.1-0.3,1.4-0.8C228,56.5,227.9,55.9,227.7,55.4z"/>
		<path class="st15" d="M249.8,39.5c-0.1-0.3-0.1-0.6-0.2-0.9c-0.2-0.7-0.4-1.5-0.8-2.2c-0.2-0.3-0.4-0.6-0.6-0.8
			c-0.3-0.4-0.6-0.6-1-0.8c-0.4-0.2-0.4-0.2,0.1,0l-0.2-0.1c-0.4-0.2-0.9-0.3-1.4-0.2c-0.4,0.1-0.8,0.4-1.1,0.8l-0.1,0.2
			c0.3-0.4,0.3-0.4,0.1-0.1c-0.3,0.4-0.5,0.9-0.5,1.5c0,0.5,0,0.9,0.1,1.4c0.2,0.8,0.5,1.6,0.8,2.3c0.3,0.7,0.6,1.4,1.2,2
			c0.2,0.2,0.4,0.4,0.6,0.6c0.8,0.7,1.8,0.7,2.6,0c0.5-0.4,0.6-1,0.6-1.7c0-0.3,0.1-0.6,0.1-0.8C250.1,40.4,249.9,39.9,249.8,39.5z"
			/>
		<path class="st15" d="M281.5,43.7l0,0.1c0-0.3,0-0.7-0.1-1c0-0.1-0.1-0.2-0.1-0.3c0,0,0-0.1,0-0.1c-0.2-0.7-0.8-1.1-1.4-1.1
			c0,0-0.1,0-0.1,0c-0.2,0-0.4,0-0.6,0c-0.2,0-0.5,0.1-0.7,0.1c0.2,0,0.4-0.1,0.6-0.1c-0.9,0.1-1.5,0.4-2.3,1c-0.4,0.3-0.6,0.6-1,1
			c-0.4,0.5-0.7,1-1.1,1.5c-1,1.3-1.9,2.8-1.5,4.5c0.2,0.8,1,1.4,1.9,1.4c1.7,0,3-1.3,4-2.5c0.4-0.5,0.8-1,1.2-1.4
			c0.3-0.4,0.6-0.8,0.8-1.2c0.1-0.3,0.3-0.6,0.4-0.9C281.5,44.3,281.5,44,281.5,43.7z"/>
		<path class="st15" d="M292.4,80.2C292.4,80.1,292.3,80.1,292.4,80.2c-0.1-0.1-0.1-0.2-0.2-0.2c-0.3-0.3-0.7-0.6-1.2-0.6
			c0.2,0.1,0.4,0.2,0.6,0.2c-0.6-0.3-1.1-0.4-1.7-0.4c-0.5,0-0.9,0-1.3,0.1c-0.5,0.1-1,0.2-1.5,0.3c-0.5,0.1-0.9,0.2-1.4,0.4
			c-0.8,0.3-1.7,0.7-2.1,1.6s-0.3,1.6,0.3,2.2c0.6,0.7,1.6,0.9,2.4,0.9c0.5,0,1,0,1.5,0c0.5-0.1,1-0.1,1.5-0.2
			c0.9-0.1,1.8-0.4,2.5-1c0.5-0.3,0.8-0.7,1-1.3c0-0.1,0-0.2,0.1-0.2C293.1,81.3,292.8,80.6,292.4,80.2z"/>
		<path class="st15" d="M286.8,111.6c-0.1-0.4-0.3-0.7-0.5-1c-0.2-0.3-0.5-0.6-0.9-0.7c-0.4-0.2-0.8-0.3-1.1-0.5
			c-0.4-0.1-0.8-0.2-1.2-0.4c-0.2-0.1-0.4-0.2-0.6-0.2c-0.2,0-0.4-0.1-0.6-0.1c-0.4-0.1-0.7-0.2-1.1-0.2c-0.2,0-0.4,0-0.6,0
			c-1.3,0-2.4,1.6-1.6,2.8c0.3,0.5,0.6,0.9,1,1.3c0.5,0.4,0.9,0.8,1.5,1c1.4,0.7,3.1,1.6,4.6,0.7c0.4-0.3,0.8-0.7,1-1.2
			C286.8,112.7,287,112.1,286.8,111.6z"/>
		<path class="st9" d="M265.5,122.6c-0.1-0.1-0.1-0.1-0.2-0.2c-0.2-0.3-0.7-0.3-1-0.1c-1.5-0.1-3.2,0.3-4.7,0.5
			c-1.7,0.2-3.5,0.4-5.2,0.6c-3.1,0.4-6.3,0.8-9.4-0.2c-1.1-0.3-1.5,1.3-0.5,1.6c3.1,1.2,6.4,1.1,9.6,0.8c1.8-0.2,3.6-0.3,5.4-0.5
			c1.7-0.2,3.7-0.1,5.3-0.6C265.9,124.2,266,123.3,265.5,122.6z"/>
	</g>
	<g>
		<path class="st3" d="M153.5,109.5c0,0,16.2,22.3,25.1,13.5c8.9-8.9-21.4-19.9-21.4-19.9L153.5,109.5z"/>
		<circle class="st4" cx="141.5" cy="93.3" r="21.4"/>
		<circle class="st0" cx="141.5" cy="93.3" r="14.4"/>
		<path class="st9" d="M154.9,99.7c-0.7,0.6-1.2,1.1-1.8,1.9c-0.5,0.7-1.1,1.3-1.7,1.9c-1.2,1.1-2.7,2-4.3,2.6
			c-3.4,1.3-7.1,1.2-10.4-0.4c-3.2-1.5-5.9-4.2-7.4-7.4c-0.9-1.8-1.4-3.8-1.5-5.8c-0.1-2.1,0.4-4.2,1-6.2c0.1-0.3-0.4-0.6-0.6-0.3
			c-2.2,2.6-2.3,6.6-1.5,9.8c0.8,3.2,2.5,6.2,4.9,8.5c4.7,4.6,11.5,6.1,17.6,3.2c1.6-0.8,3.1-1.8,4.3-3.1c0.6-0.6,1.2-1.4,1.7-2.1
			c0.5-0.8,0.5-1.5,0.5-2.4C155.6,99.6,155.2,99.5,154.9,99.7z"/>
	</g>
	<g>
		<path class="st2" d="M88,137.4h-5c-0.4-1.3-0.9-2.5-1.5-3.6l3.6-3.6c1.1-1.1,1.1-2.8,0-3.9l-3.2-3.2c-1.1-1.1-2.8-1.1-3.9,0
			l-3.6,3.6c-1.1-0.6-2.3-1.1-3.6-1.5v-5c0-1.5-1.2-2.8-2.8-2.8h-4.5c-1.5,0-2.8,1.2-2.8,2.8v5c-1.3,0.4-2.5,0.9-3.6,1.5l-3.6-3.6
			c-1.1-1.1-2.8-1.1-3.9,0l-3.2,3.2c-1.1,1.1-1.1,2.8,0,3.9l3.6,3.6c-0.6,1.1-1.1,2.3-1.5,3.6h-5c-1.5,0-2.8,1.2-2.8,2.8v4.5
			c0,1.5,1.2,2.8,2.8,2.8h5c0.4,1.3,0.9,2.5,1.5,3.6l-3.6,3.6c-1.1,1.1-1.1,2.8,0,3.9l3.2,3.2c1.1,1.1,2.8,1.1,3.9,0l3.6-3.6
			c1.1,0.6,2.3,1.1,3.6,1.5v5c0,1.5,1.2,2.8,2.8,2.8H68c1.5,0,2.8-1.2,2.8-2.8v-5c1.3-0.4,2.5-0.9,3.6-1.5l3.6,3.6
			c1.1,1.1,2.8,1.1,3.9,0l3.2-3.2c1.1-1.1,1.1-2.8,0-3.9l-3.6-3.6c0.6-1.1,1.1-2.3,1.5-3.6h5c1.5,0,2.8-1.2,2.8-2.8v-4.5
			C90.7,138.6,89.5,137.4,88,137.4z M65.7,152.4c-5.5,0-10-4.5-10-10s4.5-10,10-10s10,4.5,10,10C75.7,147.9,71.2,152.4,65.7,152.4z"
			/>
		<path class="st4" d="M61.4,174.3l-3.1,1.2c-0.5-0.7-1.1-1.3-1.7-1.8l1.3-3c0.4-0.9,0-2-0.9-2.4l-2.7-1.2c-0.9-0.4-2,0-2.4,0.9
			l-1.3,3c-0.8-0.1-1.7-0.1-2.5-0.1l-1.2-3.1c-0.4-0.9-1.4-1.4-2.3-1l-2.7,1c-0.9,0.4-1.4,1.4-1,2.3l1.2,3.1
			c-0.7,0.5-1.3,1.1-1.8,1.7l-3-1.3c-0.9-0.4-2,0-2.4,0.9l-1.2,2.7c-0.4,0.9,0,2,0.9,2.4l3,1.3c-0.1,0.8-0.1,1.7-0.1,2.5l-3.1,1.2
			c-0.9,0.4-1.4,1.4-1,2.3l1,2.7c0.4,0.9,1.4,1.4,2.3,1l3.1-1.2c0.5,0.7,1.1,1.3,1.7,1.8l-1.3,3c-0.4,0.9,0,2,0.9,2.4l2.7,1.2
			c0.9,0.4,2,0,2.4-0.9l1.3-3c0.8,0.1,1.7,0.1,2.5,0.1l1.2,3.1c0.4,0.9,1.4,1.4,2.3,1l2.7-1c0.9-0.4,1.4-1.4,1-2.3l-1.2-3.1
			c0.7-0.5,1.3-1.1,1.8-1.7l3,1.3c0.9,0.4,2,0,2.4-0.9l1.2-2.7c0.4-0.9,0-2-0.9-2.4l-3-1.3c0.1-0.8,0.1-1.7,0.1-2.5l3.1-1.2
			c0.9-0.4,1.4-1.4,1-2.3l-1-2.7C63.4,174.4,62.4,174,61.4,174.3z M51.4,188.6c-3.4,1.3-7.1-0.4-8.4-3.8c-1.3-3.4,0.4-7.1,3.8-8.4
			s7.1,0.4,8.4,3.8C56.5,183.6,54.8,187.3,51.4,188.6z"/>
		<path class="st4" d="M37.9,166.5c0-0.1,0-0.1,0-0.2c0,0,0,0,0,0c0,0,0,0,0,0c0-0.1,0-0.1,0,0c0-0.3-0.1-0.6-0.3-0.9
			c-0.6-0.7-1.7-0.8-2.6-0.9c-0.4,0-0.8-0.1-1.2,0c-0.2,0-0.5,0-0.7,0.1c-0.1,0-0.3,0.1-0.4,0.1c-0.1,0-0.2,0.2-0.3,0.2
			c-0.4,0.2-0.4,0.8,0,1.1c0-0.1,0,0,0.1,0c0,0,0.1,0.1,0.1,0.1c0.1,0.1,0.2,0.1,0.3,0.1c0.2,0.1,0.4,0.1,0.7,0.1c0.1,0,0.2,0,0.2,0
			c0,0,0.1,0,0.1,0c0.1,0,0.2,0,0.3,0l0.1,0c-0.8,0.6-1.5,1.3-2.2,2c-1,1.1-1.9,2.3-2.5,3.6c-0.6,1.3-1.2,2.6-1.4,4
			c-0.2,1.2-0.7,3.1,0.5,4c0,0,0.1,0,0.2,0c1-0.7,1-2.2,1.4-3.3c0.4-1.2,0.8-2.4,1.5-3.5c0.6-1.1,1.3-2.1,2.1-3
			c0.5-0.5,0.9-0.9,1.4-1.4c0.1-0.1,0.3-0.2,0.4-0.3c0,0.3,0,0.6,0,0.9c0,0.5-0.1,1,0.2,1.4c0.2,0.3,0.4,0.4,0.7,0.5
			c0.3,0,0.6,0,0.8-0.3c0.2-0.3,0.4-0.6,0.4-0.9c0-0.2,0-0.5,0-0.7c0-0.4,0-0.9,0-1.3c0-0.4,0-0.8,0-1.2
			C37.9,166.7,37.9,166.6,37.9,166.5z"/>
		<path class="st2" d="M85.8,163.7c-0.7,0.4-1.1,1.1-1.7,1.7c-0.5,0.6-1.1,1.1-1.7,1.6c-1.2,1-2.5,1.8-3.9,2.5
			c-1.4,0.7-2.8,1.2-4.3,1.6c-0.7,0.2-1.6,0.2-2.4,0.4c0.1-0.1,0.2-0.2,0.3-0.3c0.3-0.3,0.6-0.6,0.8-1c0.1-0.2,0.2-0.4,0.3-0.6
			c0-0.1,0.1-0.2,0.1-0.3c0-0.2-0.1-0.3-0.1-0.4c0-0.1-0.1-0.1-0.1-0.1c-0.1,0-0.2-0.1-0.4-0.1c-0.1,0-0.2,0.1-0.4,0.1
			c-0.2,0.1-0.4,0.3-0.6,0.4c-0.3,0.3-0.6,0.6-0.9,1c-0.6,0.7-1.7,1.5-1.2,2.6c0.2,0.5,0.6,0.7,1,1c0.4,0.3,0.7,0.6,1.1,0.8
			c0.4,0.3,0.7,0.6,1.1,0.8c0.3,0.2,0.5,0.3,0.9,0.3c0.2,0,0.5-0.1,0.6-0.1c0.2-0.1,0.4-0.2,0.4-0.5c0-0.5-0.1-0.8-0.5-1.2
			c-0.2-0.2-0.5-0.4-0.7-0.6c0.5-0.1,1.1-0.2,1.6-0.3c1.7-0.3,3.3-0.9,4.8-1.6c1.5-0.7,3-1.6,4.3-2.7c1.3-1,3-2.3,3.5-3.9
			C87.9,164.1,86.6,163.2,85.8,163.7z"/>
	</g>
	<g>
		<path class="st2" d="M474.4,166.2c-2.2-4.9-50.2-13.1-55.4-11.1c-4.8,1.9-9.7,33.9-9.7,37.6c0,0.9,3.5,2.3,8.7,3.7
			c0.8,4.3,2.1,11,3,12.1c0.9,1.2,6.7-4.8,9.5-9.1c15.7,3.3,34.7,6.2,36.8,5.4C470.8,203.3,476.6,171.1,474.4,166.2z"/>
		<path class="st0" d="M427.5,182.1c0-0.1,0-0.1,0-0.2c0.1-0.6,0-1.2-0.3-1.7c-0.3-0.6-0.7-1.1-1.2-1.4c-0.8-0.8-2-1.3-3.2-0.8
			c-1.4,0.6-2,2.1-1.9,3.4c0.1,0.6,0.3,1.2,0.7,1.8c0.3,0.5,0.9,1,1.5,1.2c0,0,0,0,0,0c0.6,0.5,1.3,0.7,2,0.6
			c0.7-0.1,1.4-0.5,1.8-1.1C427.3,183.4,427.5,182.7,427.5,182.1z"/>
		<path class="st0" d="M444.4,186c0-0.1,0-0.1,0-0.2c0.1-0.6,0-1.2-0.3-1.7c-0.3-0.6-0.7-1.1-1.2-1.4c-0.8-0.8-2-1.3-3.2-0.8
			c-1.4,0.6-2,2.1-1.9,3.4c0.1,0.6,0.3,1.2,0.7,1.8c0.3,0.5,0.9,1,1.5,1.2c0,0,0,0,0,0c0.6,0.5,1.3,0.7,2,0.6
			c0.7-0.1,1.4-0.5,1.8-1.1C444.3,187.3,444.5,186.6,444.4,186z"/>
		<path class="st0" d="M461.4,189.9c0-0.1,0-0.1,0-0.2c0.1-0.6,0-1.2-0.3-1.7c-0.3-0.6-0.7-1.1-1.2-1.4c-0.8-0.8-2-1.3-3.2-0.8
			c-1.4,0.6-2,2.1-1.9,3.4c0.1,0.6,0.3,1.2,0.7,1.8c0.3,0.5,0.9,1,1.5,1.2c0,0,0,0,0,0c0.6,0.5,1.3,0.7,2,0.6
			c0.7-0.1,1.4-0.5,1.8-1.1C461.3,191.1,461.4,190.5,461.4,189.9z"/>
	</g>
	<g>
		<path class="st7" d="M333.2,78.9c0,0-7.9,32.7-7.6,37.3s50.1,19.6,54.4,18.6c4.3-0.9,11.3-32.7,11.3-32.7L333.2,78.9z"/>
		<path class="st4" d="M332,77.1c-1.9,2.5,16.8,33.3,24.5,35.5c7.6,2.1,34.9-5.8,37-10.7C395.6,97,336.3,71.3,332,77.1z"/>
		<path class="st9" d="M388.8,104.4c-1.1-0.3-1.9,0.3-2.8,0.8c-1,0.5-1.9,1.1-2.9,1.5c-2,1-4,1.8-6.1,2.6c-4.3,1.5-9,2.8-13.6,2.7
			c-9.1-0.2-15.2-8.1-19.7-15.1c-2.9-4.6-5.6-9.4-8.7-13.9c-0.5-0.7-1.5-0.1-1.1,0.7c2.3,4.7,5,9.3,7.5,13.8
			c2.3,4.1,4.8,8.2,8.3,11.5c3.2,2.9,7,5.2,11.4,5.8c4.9,0.7,10-0.4,14.6-1.8c2.5-0.8,5-1.7,7.4-2.8c1.3-0.6,2.5-1.2,3.8-1.9
			c1.1-0.6,2.5-1.2,2.8-2.5C389.8,105.2,389.4,104.5,388.8,104.4z"/>
		<path class="st17" d="M343.8,108.2c-0.8-0.2-1.3-0.4-2.1-0.1c-0.7,0.2-1.3,0.6-2,0.8c-1.4,0.6-2.8,1.2-4.2,1.7
			c-1.4,0.6-2.8,1.2-4.1,1.8c-1.2,0.5-3.1,0.9-3.7,2.1c-0.2,0.4,0,0.8,0.4,0.9c1.3,0.4,3-0.6,4.2-1.1c1.4-0.5,2.8-1.1,4.2-1.7
			c1.4-0.6,2.8-1.1,4.2-1.7c0.7-0.3,1.4-0.5,2-0.8c0.8-0.4,1-0.9,1.4-1.6C344.1,108.5,344,108.3,343.8,108.2z"/>
		<path class="st17" d="M379.9,130.2c-0.4-0.6-0.8-1.2-1.2-1.8c-0.8-1.2-1.5-2.4-2.3-3.6c-0.7-1.2-1.4-2.3-2-3.5
			c-0.7-1.2-1.3-2.6-2.2-3.7c-0.4-0.5-1.5-0.1-1.4,0.6c0.2,1.3,0.8,2.6,1.3,3.8c0.5,1.2,1.1,2.3,1.7,3.5c0.6,1.1,1.2,2.2,1.9,3.3
			c0.4,0.6,0.7,1.2,1.1,1.7c0.2,0.3,0.4,0.6,0.6,0.8c0.1,0.1,0.5,0.8,0.4,0.5c0.1,1.6,2,1.7,2.6,0.3
			C380.7,131.4,380.3,130.8,379.9,130.2z"/>
	</g>
	<g>
		<path class="st18" d="M391.2,411.8c0,0-17.9-52.3,16.5-55c37.1-3,26.8,48.6,24.3,55.5C429.5,419.1,391.2,411.8,391.2,411.8z"/>
		<path class="st2" d="M429.5,443.4h-36.6c-2.1,0-3.9-0.9-4-2.1l-4.2-31.1c-0.2-1.4,1.7-2.5,4-2.5h45.1c2.4,0,4.2,1.2,4,2.5
			l-4.2,31.1C433.4,442.4,431.6,443.4,429.5,443.4z"/>
		<path class="st19" d="M390.1,397.9c-0.5-0.3-1.1-0.3-1.6-0.3c-0.4,0-0.8,0-1.2-0.1c-0.4,0-0.8,0-1.1-0.1c-0.4,0-0.8-0.1-1.2,0.1
			c0,0-0.1,0-0.1,0c-0.1,0-0.3,0-0.4,0.1c-0.1,0.1-0.2,0.2-0.1,0.1c-0.3,0.1-0.4,0.5-0.2,0.8c0-0.1,0-0.1,0.1,0.1
			c0.1,0.1,0.1,0.2,0.3,0.3c0.1,0,0.1,0.1,0.2,0.1c0.1,0.1,0.2,0.2,0.4,0.3c0.2,0.1,0.5,0.2,0.7,0.3c0.4,0.1,0.8,0.2,1.2,0.3
			c0.5,0.1,1,0.2,1.5,0.2c0.6,0.1,1.1,0.1,1.7-0.2C390.9,399.5,390.8,398.4,390.1,397.9z"/>
		<g>
			<path class="st19" d="M389.8,391.1c0,0.2,0,0.1,0-0.2c0-0.1-0.1-0.2-0.1-0.2c0,0,0,0.1,0.1,0.1c-0.1-0.3-0.3-0.5-0.6-0.8
				c-0.1-0.1-0.2-0.1-0.2-0.2c-0.2-0.2-0.5-0.4-0.8-0.6c-0.3-0.2-0.6-0.4-0.8-0.6c-0.1-0.1-0.3-0.2-0.4-0.3
				c-0.2-0.2-0.5-0.2-0.7-0.3c-0.2-0.1-0.5-0.1-0.7-0.1c-0.1,0-0.3,0-0.4,0.1c0,0,0,0-0.1,0c-0.2,0-0.3,0-0.4,0.1
				c-0.2,0.1-0.2,0.3-0.2,0.5c0,0,0,0,0-0.1c0,0,0,0.1,0,0.1c0,0,0,0,0,0c0,0,0,0,0,0c-0.1,0.2-0.1,0.2-0.1,0.5c0,0.3,0.1,0.7,0.2,1
				c0.3,0.6,0.7,0.9,1.2,1.2c0.4,0.3,0.8,0.4,1.2,0.6c0.4,0.2,0.8,0.3,1.3,0.2c0.2,0,0.3,0,0.5,0c0.3,0,0.5-0.1,0.7-0.2
				c0.1-0.1,0.2-0.1,0.3-0.2c0.2-0.2,0.2-0.3,0.1-0.2C389.8,391.6,389.9,391.3,389.8,391.1z"/>
			<path class="st19" d="M384.4,388.6C384.4,388.7,384.4,388.7,384.4,388.6C384.4,388.7,384.4,388.7,384.4,388.6
				C384.4,388.6,384.4,388.6,384.4,388.6z"/>
			<path class="st19" d="M389.7,390.7C389.7,390.6,389.7,390.6,389.7,390.7L389.7,390.7z"/>
		</g>
		<path class="st19" d="M390.5,374.9c-0.4-0.5-0.9-0.9-1.3-1.3c-0.5-0.5-1-0.9-1.7-1.3c-0.3-0.2-0.7-0.3-1-0.4c-0.3-0.1-0.7-0.1-1,0
			c-0.2,0-0.4,0.2-0.4,0.4c0,0,0,0,0,0c0,0.1,0,0.3,0,0.4c0,0.1,0,0.2,0.1,0.4c0.1,0.3,0.3,0.7,0.5,1c0.1,0.2,0.3,0.4,0.4,0.6
			c-0.1-0.1-0.1-0.2,0,0c0.1,0.1,0.2,0.3,0.3,0.4c0.2,0.2,0.5,0.5,0.7,0.7c0.5,0.5,1,0.9,1.6,1.3c0.3,0.2,0.6,0.4,1,0.6
			c0.3,0.1,0.7,0.2,1,0.2c0.4,0,0.8-0.3,0.8-0.8C391.5,376.2,391,375.4,390.5,374.9z"/>
		<g>
			<path class="st19" d="M396.2,363.5C396.1,363.5,396.1,363.1,396.2,363.5c-0.1-0.3-0.1-0.4-0.1-0.5c-0.1-0.3-0.2-0.5-0.3-0.8
				c0-0.1-0.1-0.1-0.1-0.2c0.1,0.3,0.1,0.2-0.1-0.2c0-0.1-0.1-0.2-0.1-0.2c-0.1-0.2-0.2-0.4-0.3-0.5c0,0,0-0.1,0-0.1
				c0-0.1-0.1-0.2-0.1-0.3c-0.1-0.2-0.1-0.4-0.2-0.6c-0.1-0.4-0.2-0.8-0.3-1.2c-0.1-0.2-0.1-0.3-0.2-0.5c-0.1-0.3-0.3-0.6-0.6-0.8
				c0,0,0-0.1,0-0.1c-0.1-0.1-0.3-0.2-0.4-0.1c-0.1,0-0.1,0.1-0.1,0.1c-0.5,0.1-0.7,0.5-0.9,0.9c-0.1,0.1-0.2,0.2-0.2,0.4
				c0,0.2,0,0,0.1-0.1c-0.1,0.3-0.2,0.5-0.2,0.8c0,0.3,0,0.7,0.1,1c0.1,0.6,0.3,1.2,0.6,1.7c0.1,0.2,0.2,0.4,0.4,0.6
				c0.1,0.1,0.2,0.3,0.3,0.4c0.1,0.1,0.1,0.2,0.2,0.3c0.1,0.1,0.2,0.1,0.3,0.2c0,0-0.1-0.1-0.1-0.1c0,0.1,0.2,0.2,0.3,0.2
				c0.1,0.1,0.2,0.2,0.3,0.3c0.1,0.1,0.2,0.1,0.3,0.1c0.1,0,0.2,0.1,0.2,0.1c0.1,0,0.1,0,0.2,0.1c0,0,0,0,0.1,0c0,0,0,0,0,0
				c0.1,0,0.1,0,0.2,0C395.7,364.6,396.4,364.2,396.2,363.5z"/>
			<path class="st19" d="M394.5,364.3C394.5,364.3,394.4,364.3,394.5,364.3c-0.1,0-0.1,0-0.1-0.1
				C394.4,364.3,394.4,364.3,394.5,364.3z"/>
		</g>
		<path class="st19" d="M411.3,356.2C411.3,356.1,411.3,356.1,411.3,356.2c0-0.2,0-0.3,0-0.4c0-0.1,0-0.2,0-0.3c0-0.2,0-0.3,0-0.5
			c0,0.2,0,0.2,0-0.2c0,0,0,0,0,0c0-0.1,0-0.4,0-0.4c0-0.1-0.1-0.2-0.1-0.3c0,0,0-0.1,0-0.1c0-0.1,0-0.2,0-0.2
			c0-0.2-0.2-0.3-0.3-0.2c-0.2,0-0.3,0.1-0.5,0.2c-0.6,0.1-1.2,0.9-1.4,1.4c-0.2,0.5-0.3,1.2-0.3,1.7c0,0.6,0.2,1.2,0.4,1.7
			c0.1,0.1,0.1,0.3,0.2,0.4c0,0.1,0.2,0.4,0.1,0.1c0.1,0.1,0.2,0.3,0.3,0.4c0.3,0.3,0.6,0.5,1.1,0.4c0.2,0.1,0.4,0,0.4-0.2
			c0.2-0.3,0.3-0.6,0.3-0.9c0-0.1,0-0.4,0-0.1c0.1-0.3,0-0.5,0-0.7c0,0,0,0,0,0c0,0,0-0.1,0-0.1c0-0.1,0-0.2,0-0.4
			c0-0.2,0-0.4,0-0.7C411.3,356.6,411.3,356.4,411.3,356.2z"/>
		<path class="st19" d="M428.3,359.4c0.2-0.9-0.7-1.7-1.6-1.2c0.3-0.2-0.2,0.1-0.3,0.2c-0.2,0.1-0.3,0.2-0.4,0.4
			c-0.1,0.2-0.3,0.3-0.4,0.5c-0.3,0.4-0.7,0.9-1,1.3c0,0,0,0,0.1-0.1c0,0-0.1,0.1-0.1,0.1c-0.1,0.1-0.2,0.2-0.2,0.3
			c-0.2,0.2-0.4,0.5-0.6,0.7c-0.3,0.4-0.6,0.8-0.7,1.2c-0.1,0.1-0.1,0.3-0.1,0.4c-0.1,0.6,0.4,1.1,0.9,0.9c0.2,0,0.3-0.1,0.4-0.2
			c0.5-0.1,1-0.5,1.4-0.9c0.3-0.3,0.6-0.6,0.9-1c0.3-0.3,0.6-0.7,0.9-1c0.2-0.3,0.4-0.5,0.6-0.8c0.1-0.2,0.2-0.3,0.2-0.5
			C428.3,359.6,428.4,359,428.3,359.4z"/>
		<path class="st19" d="M403.7,375.1c0-0.2-0.1-0.4-0.3-0.5c0,0-0.3-0.3-0.3-0.3c0.1,0.2,0.1,0.2,0,0c0-0.1-0.1-0.1-0.2-0.2
			c0,0-0.1-0.1-0.1-0.1c-0.3-0.3-0.6-0.5-1-0.7c-0.6-0.4-1.3-0.6-2-0.9c0.1,0.1,0.2,0.1,0.4,0.2c-0.2-0.1-0.3-0.1-0.5-0.2
			c-0.1-0.1-0.3-0.1-0.4-0.2c0,0,0,0,0,0c0.1,0,0.2,0.1,0.3,0.1c-0.1-0.1-0.3-0.1-0.5-0.2c-0.2-0.1-0.4-0.1-0.6-0.1
			c-0.3,0-0.5,0.2-0.7,0.4c0,0,0,0,0,0c0,0,0,0,0,0.1c0,0-0.1,0.1-0.1,0.1c0,0,0,0,0,0c-0.5,0.7-0.1,1.7,0.5,2.2
			c0.5,0.4,1.1,0.6,1.6,0.8c0.4,0.2,0.8,0.3,1.3,0.5c0.2,0.1,0.5,0.1,0.7,0.1c0.2,0,0.4,0,0.6,0c-0.1,0-0.1,0,0,0c0.1,0,0.2,0,0.3,0
			c0.2,0,0.4,0,0.6-0.1C403.6,376.1,403.8,375.5,403.7,375.1z"/>
		<path class="st19" d="M417.2,370.7c-0.2-0.3-0.6-0.5-1-0.5c-0.7,0-1.3,0.5-1.7,1c-0.4,0.4-0.7,0.8-1,1.2c-0.3,0.4-0.5,0.9-0.7,1.4
			c-0.1,0.2-0.1,0.5-0.2,0.8c0,0.3,0,0.8,0.2,1c0.2,0.3,0.6,0.5,1,0.4c0.2-0.1,0.4-0.2,0.5-0.3c0,0,0.2-0.1,0,0
			c-0.2,0.1,0.2-0.1,0.2-0.1c0.1-0.1,0.2-0.3,0.3-0.4c0,0,0,0,0,0c0.1-0.1,0.1-0.1,0.2-0.2c0.2-0.3,0.5-0.7,0.7-1
			c0-0.1,0.1-0.1,0.1-0.2c0,0,0,0,0-0.1c0.1-0.2,0.3-0.3,0.4-0.5c0.4-0.4,0.9-0.8,1-1.4C417.5,371.4,417.4,371.1,417.2,370.7z"/>
		<g>
			<path class="st19" d="M408.7,390C408.7,389.9,408.7,389.9,408.7,390L408.7,390z"/>
			<path class="st19" d="M411.5,390.3c0,0.3,0,0.2,0-0.1c0-0.2,0-0.3-0.1-0.5c-0.1-0.5-0.3-1-0.6-1.4c-0.2-0.4-0.4-0.8-0.6-1.1
				c-0.2-0.2-0.4-0.5-0.6-0.7c0,0-0.1-0.1-0.1-0.1c-0.1-0.1-0.3-0.2-0.4-0.3c0,0-0.1-0.1-0.2-0.1c-0.9-0.6-2.1,0.4-1.8,1.4
				c0,0.1,0,0.2,0.1,0.3c0.1,0.5,0.4,0.9,0.6,1.3c0.2,0.4,0.5,0.7,0.8,1.1c0.1,0.1,0.1,0.1,0.2,0.2c-0.1-0.1-0.1-0.1-0.1-0.1
				c0,0,0.1,0.1,0.1,0.1c0.2,0.2,0.3,0.4,0.5,0.6c0.1,0.1,0.1,0.1,0.2,0.2c0.1,0.1,0.2,0.2,0.3,0.2c0.3,0.1,0.4,0.2,0.1,0.1
				c0,0,0.1,0.1,0.2,0.1c0.1,0.1,0.2,0.1,0.3,0.1c0,0,0.1,0,0.1,0.1c0.3,0.2,0.8,0,0.9-0.4c0-0.1,0.1-0.3,0-0.1
				c0.1-0.2,0.1-0.4,0.1-0.6C411.5,390.4,411.5,390.3,411.5,390.3z"/>
		</g>
		<path class="st19" d="M402.3,395.5c0,0-0.2-0.3-0.2-0.3c0,0.1,0,0.1,0.1,0.2c0-0.1-0.1-0.3-0.2-0.4c-0.1-0.2-0.4-0.5-0.5-0.7
			c-0.2-0.3-0.5-0.6-0.8-0.9c-0.3-0.3-0.6-0.5-0.9-0.8c-0.5-0.4-1-0.8-1.6-1l0.4,0.2c-0.4-0.2-0.8-0.4-1.2-0.4c0,0,0,0,0,0
			c0,0,0,0-0.1,0c-0.5-0.2-1.2,0.2-1.3,0.7c0,0.2-0.1,0.4-0.1,0.6c0,0.3,0.1,0.6,0.3,0.9c0.1,0.1,0.1,0.2,0.2,0.3
			c0.1,0.2,0.3,0.4,0.4,0.6c0.1,0.1,0.2,0.2,0.3,0.3c0.3,0.3,0.6,0.5,0.9,0.7c0.4,0.3,0.8,0.6,1.3,0.9c0.2,0.1,0.5,0.3,0.7,0.4
			c0.3,0.2,0.6,0.3,1,0.4c0.3,0.1,0.8,0,1.1-0.3c0-0.1,0.1-0.1,0.1-0.2c0,0,0,0,0-0.1C402.5,396.3,402.5,395.8,402.3,395.5z"/>
		<path class="st19" d="M421.9,397.9c-0.1,0-0.2-0.1-0.4-0.1c0.2,0,0.2,0,0,0c-0.2,0-0.4,0-0.7,0.1c-0.2,0-0.4,0.1-0.5,0.1
			c-0.4,0.1-0.8,0.2-1.1,0.3c-0.4,0.1-0.9,0.2-1.2,0.4c-0.2,0.1-0.2,0.1-0.4,0.2c-0.1,0-0.1,0.1-0.2,0.1c-0.1,0.1-0.2,0.2-0.3,0.3
			c-0.1,0.1-0.2,0.3,0,0.4c0.1,0.1,0.1,0.2,0.2,0.2c0.1,0.1,0.1,0.1,0.2,0.1c0.1,0,0.1,0.1,0.2,0.1c0.2,0.1,0.4,0.2,0.7,0.2
			c0.4,0.1,0.9,0.2,1.4,0.1c0.5,0,1-0.1,1.4-0.2c0.2,0,0.4-0.1,0.6-0.2c0.4-0.2,0.7-0.4,0.9-0.7
			C422.9,398.9,422.5,398.1,421.9,397.9z"/>
		<path class="st19" d="M423.7,384c-0.6,0-1.1,0.3-1.6,0.6c-0.2,0.1-0.3,0.2-0.5,0.2c0,0,0,0-0.1,0c-0.1,0-0.2,0.1-0.3,0.1
			c-0.4,0.1-0.8,0.2-1.1,0.4c-0.2,0.1-0.4,0.1-0.6,0.2c-0.3,0.1-0.4,0.3-0.6,0.6c0,0.1-0.1,0.1-0.1,0.2c0.1,0.2,0.1,0.4,0.3,0.6
			c0.1,0.1,0.3,0.2,0.5,0.3c0.2,0.1,0.4,0.1,0.6,0.2c0.6,0.1,1.2,0.1,1.7-0.1c1.1-0.3,2.4-0.8,2.7-1.9
			C425,384.8,424.5,384,423.7,384z"/>
		<path class="st19" d="M432,365.7c-0.1-0.5-0.7-0.8-1.2-0.7c-0.1,0-0.2,0.1-0.3,0.1c0.1-0.1,0.1-0.1,0,0c-0.3,0.1-0.5,0.2-0.7,0.4
			c-0.3,0.2-0.5,0.5-0.7,0.8c-0.3,0.5-0.6,0.9-0.9,1.4c-0.3,0.5-0.6,1-0.8,1.6c-0.2,0.5-0.5,1.2-0.1,1.7v0c0,0.1,0.1,0.2,0.2,0.1
			c0,0,0,0,0,0c0.6,0.3,1.3-0.3,1.7-0.6c0.4-0.4,0.8-0.8,1.1-1.2c0.4-0.5,0.7-1,1.1-1.5C432,367.1,432.2,366.4,432,365.7z"/>
		<path class="st19" d="M437.1,380.8c-0.2-0.5-0.7-0.7-1.2-0.8c0,0,0,0,0,0c-0.5-0.1-1.1,0.1-1.6,0.3c-0.5,0.2-1,0.4-1.5,0.6
			c-0.4,0.2-0.8,0.4-1.2,0.6c-0.3,0.2-0.7,0.4-0.8,0.7c0.1-0.2,0-0.1-0.1,0c-0.2,0.2-0.3,0.4-0.4,0.6c-0.1,0.3,0,0.6,0.2,0.8
			c0.2,0.2,0.4,0.3,0.8,0.3c0,0,0.3,0,0.3,0c-0.2,0-0.2,0,0.2,0c0.1,0,0.3,0,0.4-0.1c0.1,0,0.2,0,0.3-0.1c0.5-0.1,0.9-0.2,1.3-0.3
			c0.5-0.2,1.1-0.3,1.6-0.6c0.2-0.1,0.4-0.2,0.6-0.3c0.3-0.1,0.5-0.3,0.7-0.5c0,0,0,0,0.1-0.1C437.2,381.8,437.3,381.3,437.1,380.8z
			"/>
		<path class="st19" d="M437.5,397.9c-0.2-0.6-0.8-1.1-1.4-1.4c-0.5-0.3-1.1-0.5-1.6-0.7c-0.6-0.1-1.1-0.3-1.7-0.3
			c-0.1,0-0.2,0-0.3,0c-0.1,0-0.4,0-0.1,0c-0.2,0-0.4,0-0.6,0c0,0-0.1,0-0.1,0c-0.1,0-0.1,0-0.2,0c-0.1-0.1-0.3-0.1-0.4,0
			c0,0-0.1,0.1-0.1,0.1c-0.3,0.2-0.4,0.5-0.3,0.8c0,0.2,0.1,0.3,0.2,0.5c0.2,0.4,0.6,0.7,1,0.9c0.3,0.1,0.6,0.3,0.9,0.4
			c0.1,0,0.2,0.1,0.3,0.1c0,0,0,0,0,0c0,0,0.1,0,0.1,0.1c0.2,0.1,0.4,0.2,0.6,0.3c0.1,0,0.2,0.1,0.2,0.1c0,0,0.1,0,0.1,0.1
			c0.1,0.1,0.2,0.1,0.4,0.2c0.6,0.3,1.1,0.6,1.7,0.5C437.3,399.5,437.8,398.7,437.5,397.9z"/>
		<path class="st19" d="M408.6,401.8c-0.1-0.2-0.3-0.3-0.5-0.3c0,0,0,0-0.1,0c0.1,0.1,0.1,0-0.1-0.1c-0.1,0-0.3,0-0.4,0c0,0,0,0,0,0
			c0,0,0,0,0,0c-0.2,0-0.3,0-0.5,0c-0.2,0-0.5,0-0.7,0.1c-0.4,0.1-0.7,0.1-1.1,0.3c-0.2,0.1-0.3,0.1-0.5,0.2
			c-0.1,0.1-0.3,0.1-0.4,0.2c-0.2,0.1-0.4,0.3-0.5,0.5c-0.4,0.6,0,1.4,0.7,1.6c0.3,0.1,0.6,0.1,0.9,0c0.1,0,0.3-0.1,0.4-0.1
			c0.4-0.1,0.7-0.3,1.1-0.4c0.3-0.1,0.5-0.3,0.8-0.5c0.2-0.2,0.5-0.4,0.7-0.7C408.5,402.3,408.7,402,408.6,401.8z"/>
		<path class="st0" d="M436.7,416.3c-2.7-2.6-6.4-0.9-9.1,0.6c-1.9,1.1-3.5,1.3-5.5,0.3c-1.7-0.8-3.3-1.8-5.2-2.4
			c-3.8-1.3-7.6-1-10.9,1.2c-2,1.3-3.8,1.4-6.1,0.8c-2-0.6-3.9-1.5-5.9-2c-1.9-0.5-3.9-0.5-5.7,0.2c-1.3,0.5-3.6,1.9-2.7,3.6
			c0.1,0.3,0.4,0.4,0.7,0.4c0.6,0,1-0.4,1.5-0.7c0.6-0.5,1.3-0.9,2.1-1.1c1.7-0.4,3.4,0.1,5,0.6c3.4,1.2,6.9,3,10.6,1.8
			c1.7-0.6,3-1.8,4.8-2.3c1.7-0.4,3.5-0.3,5.2,0.2c3.3,0.9,6.1,3.7,9.6,3.5c1.9-0.1,3.6-1.1,5.2-2c1.2-0.6,3.1-1.6,4.4-0.5
			c0.4,0.3,1,0.6,1.5,0.4c0.4-0.2,0.7-0.3,0.9-0.7C437.3,417.6,437.2,416.8,436.7,416.3z"/>
		<path class="st0" d="M433.6,422.9c-1.6,0.7-2.8,1.7-4.6,2c-1.8,0.3-3.5-0.1-5.2-0.7c-3.1-1.1-6.1-2.8-9.4-2.3
			c-1.7,0.3-3.2,1.1-4.7,1.7c-1.9,0.7-3.9,0.6-5.9,0.2c-3.3-0.8-6.3-2.4-9.7-2.7c-2.8-0.3-6.7,0.4-8.1,3.2c-0.4,0.9,0.6,1.8,1.4,1.1
			c1.4-1.3,2.7-2.1,4.7-2.3c1.9-0.1,3.8,0.3,5.6,0.8c4.5,1.5,8.7,3.3,13.4,1.4c2.1-0.8,4-1.7,6.4-1.1c2.1,0.5,4,1.5,6.1,2.2
			c2,0.7,4,1,6.1,0.7c1.8-0.3,4.2-1.1,5.4-2.6C435.5,423.5,434.7,422.4,433.6,422.9z"/>
	</g>
	<path class="st4" d="M447.8,467c-51.4,0-102.7-0.4-154.1,0.2c-51.4,0.5-102.7,0.4-154.1,0.4c-28.9,0-57.7,0-86.6,0
		c-1,0-1.8,0.4-2.3,1c-0.2,0-0.4,0-0.6,0.1c-2.9,0.3-2.9,4.2,0,4.5c0.2,0,0.4,0,0.6,0.1c0.5,0.6,1.3,1,2.3,1
		c51.4,0,102.7,0,154.1,0.1c51.4,0,102.7,0.5,154.1,0.5c28.9,0,57.7,0,86.6,0C452.8,474.8,452.8,467,447.8,467z"/>
	<path class="st18" d="M78.9,343.8c-0.2-0.5-0.2-0.8-0.6-1.2c-0.4-0.3-0.8-0.4-1.2-0.5c-0.9-0.2-1.8-0.1-2.6,0
		c-1.6,0.3-3.3,1.2-4.4,2.5c-0.6,0.7-1,1.4-1.3,2.2c-0.3,0.9-0.5,2-1,2.7c-0.7,1-2.2,1.2-3.3,1.4c-2.7,0.4-6.1,0.2-8.1,2.4
		c-1.3,1.5-1.3,3.3-1.8,5.1c-0.5,1.9-2.2,2.1-3.9,2.3c-2,0.2-4,0.4-5.6,1.7c-1.5,1.1-3,3.1-2.9,5.1c0,0.9,1.3,1.4,1.8,0.5
		c0.7-1.6,1.3-3,2.9-3.9c1.4-0.8,3.1-0.7,4.7-0.9c1.6-0.2,3.2-0.5,4.3-1.7c1.3-1.4,1.4-3.2,1.9-4.9c0.8-2.8,4-2.6,6.3-2.8
		c2.9-0.3,5.7-1.1,6.8-4.1c0.3-0.9,0.5-1.9,1.1-2.8c0.5-0.7,1.1-1.2,1.8-1.6c0.7-0.3,1.5-0.5,2.2-0.5c0.5,0,0.9,0.1,1.4,0.2
		c0.6,0,0.9-0.3,1.4-0.4C79,344.5,79.1,344.1,78.9,343.8z"/>
	<path class="st18" d="M71,360.4c-0.2-0.5-0.2-0.8-0.6-1.2c-0.4-0.3-0.8-0.4-1.2-0.5c-0.9-0.2-1.8-0.1-2.6,0
		c-1.6,0.3-3.3,1.2-4.4,2.5c-0.6,0.7-1,1.4-1.3,2.2c-0.3,0.9-0.5,2-1,2.7c-0.7,1-2.2,1.2-3.3,1.4c-2.7,0.4-6.1,0.2-8.1,2.4
		c-1.3,1.5-1.3,3.3-1.8,5.1c-0.5,1.9-2.2,2.1-3.9,2.3c-2,0.2-4,0.4-5.6,1.7c-1.5,1.1-3,3.1-2.9,5.1c0,0.9,1.3,1.4,1.8,0.5
		c0.7-1.6,1.3-3,2.9-3.9c1.4-0.8,3.1-0.7,4.7-0.9c1.6-0.2,3.2-0.5,4.3-1.7c1.3-1.4,1.4-3.2,1.9-4.9c0.8-2.8,4-2.6,6.3-2.8
		c2.9-0.3,5.7-1.1,6.8-4.1c0.3-0.9,0.5-1.9,1.1-2.8c0.5-0.7,1.1-1.2,1.8-1.6c0.7-0.3,1.5-0.5,2.2-0.5c0.5,0,0.9,0.1,1.4,0.2
		c0.6,0,0.9-0.3,1.4-0.4C71,361,71.1,360.6,71,360.4z"/>
	<path class="st18" d="M443.7,106.9c-0.2-0.5-0.2-0.8-0.6-1.2c-0.4-0.3-0.8-0.4-1.2-0.5c-0.9-0.2-1.8-0.1-2.6,0
		c-1.6,0.3-3.3,1.2-4.4,2.5c-0.6,0.7-1,1.4-1.3,2.2c-0.3,0.9-0.5,2-1,2.7c-0.7,1-2.2,1.2-3.3,1.4c-2.7,0.4-6.1,0.2-8.1,2.4
		c-1.3,1.5-1.3,3.3-1.8,5.1c-0.5,1.9-2.2,2.2-3.9,2.3c-2,0.2-4,0.4-5.6,1.7c-1.5,1.1-3,3.1-2.9,5.1c0,0.9,1.3,1.4,1.8,0.5
		c0.7-1.6,1.3-3,2.9-3.9c1.4-0.8,3.1-0.7,4.7-0.9c1.6-0.2,3.2-0.5,4.3-1.7c1.3-1.4,1.4-3.2,1.9-4.9c0.8-2.8,4-2.6,6.3-2.8
		c2.9-0.3,5.7-1.1,6.8-4.1c0.4-0.9,0.5-1.9,1.1-2.8c0.5-0.7,1.1-1.2,1.8-1.6c0.7-0.3,1.5-0.5,2.2-0.5c0.5,0,0.9,0.1,1.4,0.2
		c0.6,0,0.9-0.3,1.4-0.4C443.8,107.6,443.9,107.2,443.7,106.9z"/>
	<path class="st18" d="M435.8,123.5c-0.2-0.5-0.2-0.8-0.6-1.2c-0.4-0.3-0.8-0.4-1.2-0.5c-0.9-0.2-1.8-0.1-2.6,0
		c-1.6,0.3-3.3,1.2-4.4,2.5c-0.6,0.7-1,1.4-1.3,2.2c-0.3,0.9-0.5,2-1,2.7c-0.7,1-2.2,1.2-3.3,1.4c-2.7,0.4-6.1,0.2-8.1,2.4
		c-1.3,1.5-1.3,3.3-1.8,5.1c-0.5,1.9-2.2,2.1-3.9,2.3c-2,0.2-4,0.4-5.6,1.7c-1.5,1.1-3,3.1-2.9,5.1c0,0.9,1.3,1.4,1.8,0.5
		c0.7-1.6,1.3-3,2.9-3.9c1.4-0.8,3.1-0.7,4.7-0.9c1.6-0.2,3.2-0.5,4.3-1.7c1.3-1.4,1.4-3.2,1.9-4.9c0.8-2.8,4-2.6,6.3-2.8
		c2.9-0.3,5.7-1.1,6.8-4.1c0.4-0.9,0.5-1.9,1.1-2.8c0.5-0.7,1.1-1.2,1.8-1.6c0.7-0.3,1.5-0.5,2.2-0.5c0.5,0,0.9,0.1,1.4,0.2
		c0.6,0,0.9-0.3,1.4-0.4C435.8,124.2,435.9,123.8,435.8,123.5z"/>
	<g>
		<path class="st18" d="M117.4,118.5l-12,12c0,0,0,0,0,0c-1,1-2,2-3,3c-0.8,0.8,0.5,2.1,1.3,1.3c1-1,2-2,3-3c0,0,0,0,0,0
			c4-4,8-8,12-12C119.5,119,118.2,117.7,117.4,118.5z"/>
		<path class="st18" d="M121.2,122.3l-12,12c0,0,0,0,0,0c-1,1-2,2-3,3c-0.8,0.8,0.5,2.1,1.3,1.3c1-1,2-2,3-3c0,0,0,0,0,0
			c4-4,8-8,12-12C123.3,122.8,122,121.5,121.2,122.3z"/>
		<path class="st18" d="M125,126.1l-12,12c0,0,0,0,0,0c-1,1-2,2-3,3c-0.8,0.8,0.5,2.1,1.3,1.3c1-1,2-2,3-3c0,0,0,0,0,0
			c4-4,8-8,12-12C127.1,126.6,125.9,125.3,125,126.1z"/>
	</g>
	<g>
		<path class="st18" d="M457.2,324.4l-12,12c0,0,0,0,0,0c-1,1-2,2-3,3c-0.8,0.8,0.5,2.1,1.3,1.3c1-1,2-2,3-3c0,0,0,0,0,0
			c4-4,8-8,12-12C459.3,324.9,458.1,323.6,457.2,324.4z"/>
		<path class="st18" d="M461,328.2l-12,12c0,0,0,0,0,0c-1,1-2,2-3,3c-0.8,0.8,0.5,2.1,1.3,1.3c1-1,2-2,3-3c0,0,0,0,0,0
			c4-4,8-8,12-12C463.1,328.7,461.9,327.4,461,328.2z"/>
		<path class="st18" d="M464.9,332l-12,12c0,0,0,0,0,0c-1,1-2,2-3,3c-0.8,0.8,0.5,2.1,1.3,1.3c1-1,2-2,3-3c0,0,0,0,0,0
			c4-4,8-8,12-12C466.9,332.5,465.7,331.2,464.9,332z"/>
	</g>
	<path class="st2" d="M143.3,49c-0.2-0.6-0.5-1.1-0.9-1.5c-0.3-0.3-0.7-0.6-1-0.8c-0.1-0.1-0.2-0.1-0.3-0.2c-0.3-0.2-0.6-0.3-1-0.4
		c-0.6-0.2-1.3-0.2-1.9,0c-0.9,0.3-1.8,0.9-2.2,1.8c-0.3,0.3-0.5,0.7-0.6,1.2c-0.1,0.5-0.1,1,0,1.5c0.1,0.3,0.2,0.6,0.4,0.8
		c0.1,0.2,0.2,0.3,0.3,0.5c0.1,0.1,0.2,0.3,0.3,0.4c0.1,0.1,0.3,0.2,0.4,0.3c0.1,0.1,0.1,0.1,0.2,0.1c0.1,0.1,0.1,0.1,0.2,0.2
		c0.1,0.1,0.1,0.1,0.2,0.1c0.2,0.1,0.5,0.2,0.7,0.3c0.2,0,0.5,0.1,0.7,0c0.1,0,0.1,0,0.2,0.1c0.6,0.2,1.2,0.2,1.8,0
		c0.5-0.1,0.8-0.3,1.2-0.6c0.4-0.2,0.7-0.6,0.9-1c0.3-0.4,0.4-0.8,0.4-1.3C143.5,49.9,143.5,49.5,143.3,49z"/>
	<path class="st15" d="M190.8,161.3c-0.2-0.6-0.5-1.1-0.9-1.5c-0.2-0.2-0.5-0.4-0.7-0.5c-0.5-0.3-1.1-0.5-1.7-0.5
		c-0.5,0-0.9,0.1-1.3,0.3c-0.4,0.1-0.8,0.4-1.1,0.7c-0.3,0.3-0.6,0.7-0.7,1.1c-0.2,0.4-0.3,0.9-0.3,1.3c0,0.3,0.1,0.6,0.1,0.9
		c0.2,0.6,0.5,1.1,0.9,1.5c0.2,0.2,0.5,0.4,0.7,0.5c0.5,0.3,1.1,0.5,1.7,0.5c0.5,0,0.9-0.1,1.3-0.3c0.4-0.1,0.8-0.4,1.1-0.7
		c0.3-0.3,0.6-0.7,0.7-1.1c0.2-0.4,0.3-0.9,0.3-1.3C190.9,161.9,190.8,161.6,190.8,161.3z"/>
	<path class="st15" d="M51.3,218.1c-0.2-0.5-0.4-0.9-0.8-1.3c-0.4-0.4-0.8-0.7-1.3-0.8c-0.5-0.2-1-0.4-1.5-0.3c-0.3,0-0.7,0.1-1,0.1
		c-0.7,0.2-1.2,0.5-1.7,1c-0.2,0.3-0.4,0.5-0.6,0.8c-0.3,0.5-0.5,1-0.5,1.6c-0.1,0.4-0.1,0.8,0,1.3c0,0.5,0.2,1,0.5,1.5
		c0.2,0.3,0.4,0.5,0.6,0.8c0.4,0.4,0.8,0.7,1.3,0.8c0.3,0.2,0.6,0.3,1,0.3c0.5,0.1,1,0.1,1.6-0.1c0.3-0.1,0.6-0.3,0.9-0.4
		c0.6-0.3,1.1-0.8,1.4-1.4c0,0,0,0,0,0c0,0,0,0,0,0c0.1-0.3,0.3-0.7,0.4-0.9c0,0,0-0.1,0-0.1c0,0,0-0.1,0-0.1c0-0.2,0.1-0.4,0.1-0.5
		c0-0.1,0.1-0.4,0.1-0.5c0,0,0,0,0-0.1C51.7,219,51.6,218.5,51.3,218.1z"/>
	<path class="st2" d="M137.7,372.8c0-0.2-0.1-0.4-0.1-0.6c-0.1-0.3-0.2-0.6-0.4-0.8c-0.1-0.1-0.2-0.2-0.3-0.3c0,0,0.1,0,0.1,0l0,0
		l-0.5-0.4c0,0,0,0-0.1,0c-0.1,0-0.1-0.1-0.2-0.1c-0.1,0-0.2-0.1-0.3-0.1c0,0,0,0,0,0c0,0-0.1,0-0.1,0c0,0-0.1,0-0.1,0
		c-0.1,0-0.2,0-0.3,0c0,0-0.1,0-0.1,0c-0.1,0-0.3,0-0.4,0c-0.2,0-0.3,0-0.5,0.1c-0.2,0-0.3,0.1-0.5,0.2c-0.3,0.1-0.5,0.3-0.8,0.5
		c-0.2,0.2-0.4,0.5-0.5,0.8c-0.1,0.3-0.2,0.6-0.2,0.9c0,0.2,0.1,0.4,0.1,0.6c0.1,0.4,0.3,0.7,0.6,1c0.2,0.1,0.3,0.2,0.5,0.4
		c0.4,0.2,0.8,0.3,1.2,0.3c0.3,0,0.6-0.1,0.8-0.1c0.1,0,0.1,0,0.2-0.1c0.2-0.1,0.4-0.2,0.6-0.2c0.3-0.1,0.5-0.4,0.7-0.6
		c0.1-0.1,0.2-0.3,0.3-0.5C137.6,373.5,137.7,373.2,137.7,372.8C137.7,372.8,137.7,372.8,137.7,372.8z"/>
	<path class="st15" d="M364.8,375.6c-0.3-0.5-0.7-0.9-1.2-1.2c-0.5-0.3-1.1-0.4-1.6-0.4c-0.4,0-0.8,0.1-1.2,0.2
		c-0.1,0-0.2,0.1-0.3,0.1c0,0,0,0,0,0c-0.1,0-0.2,0.1-0.3,0.1c-0.3,0.1-0.5,0.2-0.8,0.3c-0.4,0.2-0.7,0.5-0.9,0.8
		c-0.2,0.2-0.3,0.4-0.4,0.7c-0.2,0.4-0.3,0.8-0.3,1.3c0,0.3,0.1,0.6,0.1,0.9c0.1,0.3,0.2,0.5,0.3,0.8c0.2,0.4,0.5,0.7,0.8,0.9
		c0.3,0.3,0.7,0.5,1.1,0.6c0,0,0.1,0,0.1,0c0.3,0.1,0.7,0.1,1,0.1c0.1,0,0.2,0,0.3,0c0.3,0,0.6-0.1,0.9-0.1c0,0,0,0,0,0
		c0.1,0,0.6-0.2,0.9-0.4c0,0,0.1,0,0.1-0.1c0,0,0,0,0,0c0.2-0.2,0.5-0.3,0.7-0.5c0,0,0,0,0,0c0,0,0,0,0,0c0.2-0.2,0.3-0.4,0.5-0.7
		c0,0,0,0,0-0.1c0.3-0.5,0.4-1.1,0.4-1.6C365.3,376.6,365.1,376.1,364.8,375.6z"/>
	<path class="st2" d="M467.8,256c-0.2-0.6-0.5-1.1-0.9-1.6c-0.2-0.2-0.5-0.4-0.7-0.6c-0.6-0.3-1.2-0.5-1.8-0.5c-0.5,0-1,0.1-1.4,0.3
		c-0.4,0.1-0.8,0.4-1.1,0.7c-0.3,0.3-0.6,0.7-0.7,1.1c-0.2,0.4-0.3,0.9-0.3,1.4c0,0.3,0.1,0.6,0.1,1c0.2,0.6,0.5,1.1,0.9,1.6
		c0.2,0.2,0.5,0.4,0.7,0.6c0.6,0.3,1.2,0.5,1.8,0.5c0.5,0,1-0.1,1.4-0.3c0.4-0.1,0.8-0.4,1.1-0.7c0.3-0.3,0.6-0.7,0.7-1.1
		c0.2-0.4,0.3-0.9,0.3-1.4L467.8,256z"/>
	<path class="st15" d="M387.6,163.1c0-0.4-0.1-0.7-0.3-1.1c-0.2-0.3-0.4-0.5-0.6-0.7c-0.2-0.3-0.4-0.6-0.6-0.9
		c-0.3-0.2-0.6-0.4-0.9-0.4c-0.3,0-0.7,0-1,0.2c-0.1,0.1-0.1,0.1-0.2,0.2c0,0,0,0,0,0c-0.1-0.2-0.3-0.4-0.5-0.4
		c-0.3,0-0.6-0.1-0.9,0c-0.2,0-0.4,0.1-0.6,0.2c-0.3,0.1-0.5,0.3-0.7,0.6c-0.5,0.3-0.9,0.8-1.1,1.4c-0.2,0.5-0.2,1.1,0,1.6
		c0.1,0.3,0.2,0.5,0.3,0.8c0.1,0.3,0.3,0.5,0.5,0.7c0.1,0.1,0.2,0.2,0.3,0.3c0.2,0.3,0.5,0.6,0.9,0.8c0,0,0.1,0,0.1,0
		c0.5,0.3,0.8,0.4,1.4,0.4c0.4,0,0.8-0.1,1.2-0.1c0.4-0.1,0.8-0.3,1.1-0.4c0.4-0.2,0.7-0.4,1-0.7c0.4-0.4,0.6-0.8,0.7-1.3
		C387.7,163.8,387.7,163.5,387.6,163.1z"/>
	<path class="st2" d="M320.6,228.2c-0.1-0.4-0.3-0.7-0.6-1c-0.2-0.2-0.4-0.3-0.6-0.5c-0.4-0.2-0.7-0.3-1.1-0.4
		c-0.3-0.1-0.5-0.1-0.8,0c-0.4,0-0.8,0.1-1.1,0.4c-0.2,0.2-0.4,0.3-0.6,0.5c-0.2,0.2-0.4,0.4-0.5,0.7c0,0.1-0.1,0.1-0.1,0.2
		c-0.3,0.5-0.4,1-0.4,1.6c0,0.3,0.1,0.6,0.1,0.8c0.1,0.5,0.4,1,0.8,1.4c0.3,0.3,0.6,0.5,1,0.6c0.4,0.2,0.8,0.3,1.2,0.3
		c0.4,0,0.8-0.1,1.2-0.3c0.4-0.1,0.7-0.3,1-0.6c0.4-0.4,0.7-0.8,0.8-1.4c0.1-0.3,0.1-0.7,0.1-1.1
		C320.9,228.9,320.8,228.5,320.6,228.2z"/>
	<path class="st2" d="M307.1,35.8C307.1,35.8,307.1,35.8,307.1,35.8c-0.1-0.3-0.2-0.5-0.3-0.7c-0.2-0.3-0.4-0.6-0.7-0.8
		c-0.2-0.2-0.4-0.3-0.6-0.3c-0.3-0.2-0.7-0.2-1-0.2c0,0,0,0,0,0c-0.5,0-1,0.1-1.4,0.4c-0.4,0.2-0.7,0.6-1,1c0,0.1-0.1,0.2-0.1,0.2
		c0,0.1-0.1,0.1-0.1,0.2c-0.2,0.3-0.3,0.6-0.3,1c-0.1,0.2-0.1,0.5,0,0.7c0,0.3,0.1,0.7,0.3,1c0.1,0.2,0.3,0.4,0.4,0.5l0.5,0.4
		c0.3,0.2,0.6,0.3,1,0.3c0.3,0.1,0.7,0.1,1,0c0,0,0.1,0,0.1,0c0.3-0.1,0.5-0.2,0.7-0.3c0.3-0.1,0.5-0.4,0.8-0.6
		c0.3-0.3,0.6-0.7,0.7-1.2C307.3,36.8,307.3,36.3,307.1,35.8z"/>
</g>
</svg>
